<svg width="1301" height="130" viewBox="0 0 1301 130" fill="none" xmlns="http://www.w3.org/2000/svg">
<path d="M0 0H1301V130H0V0Z" fill="#212529"/>
<path d="M66.4148 35.1193C66.2727 34.6591 66.0767 34.2472 65.8267 33.8835C65.5824 33.5142 65.2869 33.1989 64.9403 32.9375C64.5994 32.6761 64.2074 32.4801 63.7642 32.3494C63.321 32.2131 62.8381 32.1449 62.3153 32.1449C61.3778 32.1449 60.5426 32.3807 59.8097 32.8523C59.0767 33.3239 58.5 34.017 58.0795 34.9318C57.6648 35.8409 57.4574 36.9489 57.4574 38.2557C57.4574 39.5739 57.6648 40.6903 58.0795 41.6051C58.4943 42.5199 59.071 43.2159 59.8097 43.6932C60.5483 44.1648 61.4063 44.4006 62.3835 44.4006C63.2699 44.4006 64.0369 44.2301 64.6847 43.8892C65.3381 43.5483 65.8409 43.0653 66.1932 42.4403C66.5455 41.8097 66.7216 41.071 66.7216 40.2244L67.4375 40.3352H62.6989V37.8636H69.7812V39.9602C69.7812 41.4545 69.4631 42.7472 68.8267 43.8381C68.1903 44.929 67.3153 45.7699 66.2017 46.3608C65.0881 46.946 63.8097 47.2386 62.3665 47.2386C60.7585 47.2386 59.3466 46.8778 58.1307 46.1562C56.9205 45.429 55.9744 44.3977 55.2926 43.0625C54.6165 41.7216 54.2784 40.1307 54.2784 38.2898C54.2784 36.8807 54.4773 35.6222 54.875 34.5142C55.2784 33.4062 55.8409 32.4659 56.5625 31.6932C57.2841 30.9148 58.1307 30.3239 59.1023 29.9205C60.0739 29.5114 61.1307 29.3068 62.2727 29.3068C63.2386 29.3068 64.1392 29.4489 64.9744 29.733C65.8097 30.0114 66.5511 30.4091 67.1989 30.9261C67.8523 31.4432 68.3892 32.0568 68.8097 32.767C69.2301 33.4773 69.5057 34.2614 69.6364 35.1193H66.4148ZM72.7024 47V33.9091H75.6939V36.0909H75.8303C76.0689 35.3352 76.478 34.7528 77.0575 34.3438C77.6428 33.929 78.3104 33.7216 79.0604 33.7216C79.2308 33.7216 79.4212 33.7301 79.6314 33.7472C79.8473 33.7585 80.0263 33.7784 80.1683 33.8068V36.6449C80.0376 36.5994 79.8303 36.5597 79.5462 36.5256C79.2678 36.4858 78.9979 36.4659 78.7365 36.4659C78.174 36.4659 77.6683 36.5881 77.2195 36.8324C76.7763 37.071 76.4268 37.4034 76.1712 37.8295C75.9155 38.2557 75.7876 38.7472 75.7876 39.304V47H72.7024ZM87.3892 47.2557C86.1108 47.2557 85.0028 46.9744 84.0653 46.4119C83.1278 45.8494 82.4006 45.0625 81.8835 44.0511C81.3722 43.0398 81.1165 41.858 81.1165 40.5057C81.1165 39.1534 81.3722 37.9687 81.8835 36.9517C82.4006 35.9347 83.1278 35.1449 84.0653 34.5824C85.0028 34.0199 86.1108 33.7386 87.3892 33.7386C88.6676 33.7386 89.7756 34.0199 90.7131 34.5824C91.6506 35.1449 92.375 35.9347 92.8864 36.9517C93.4034 37.9687 93.6619 39.1534 93.6619 40.5057C93.6619 41.858 93.4034 43.0398 92.8864 44.0511C92.375 45.0625 91.6506 45.8494 90.7131 46.4119C89.7756 46.9744 88.6676 47.2557 87.3892 47.2557ZM87.4062 44.7841C88.0994 44.7841 88.679 44.5937 89.1449 44.2131C89.6108 43.8267 89.9574 43.3097 90.1847 42.6619C90.4176 42.0142 90.5341 41.2926 90.5341 40.4972C90.5341 39.696 90.4176 38.9716 90.1847 38.3239C89.9574 37.6705 89.6108 37.1506 89.1449 36.7642C88.679 36.3778 88.0994 36.1847 87.4062 36.1847C86.696 36.1847 86.1051 36.3778 85.6335 36.7642C85.1676 37.1506 84.8182 37.6705 84.5852 38.3239C84.358 38.9716 84.2443 39.696 84.2443 40.4972C84.2443 41.2926 84.358 42.0142 84.5852 42.6619C84.8182 43.3097 85.1676 43.8267 85.6335 44.2131C86.1051 44.5937 86.696 44.7841 87.4062 44.7841ZM98.6072 47L94.9084 33.9091H98.0533L100.354 43.1136H100.474L102.826 33.9091H105.937L108.289 43.0625H108.417L110.684 33.9091H113.837L110.13 47H106.917L104.462 38.1534H104.283L101.829 47H98.6072ZM120.888 29.5455H124.459L128.729 37.267H128.899L133.169 29.5455H136.74L130.391 40.4886V47H127.237V40.4886L120.888 29.5455ZM142.116 47.2557C140.837 47.2557 139.729 46.9744 138.792 46.4119C137.854 45.8494 137.127 45.0625 136.61 44.0511C136.099 43.0398 135.843 41.858 135.843 40.5057C135.843 39.1534 136.099 37.9687 136.61 36.9517C137.127 35.9347 137.854 35.1449 138.792 34.5824C139.729 34.0199 140.837 33.7386 142.116 33.7386C143.394 33.7386 144.502 34.0199 145.44 34.5824C146.377 35.1449 147.102 35.9347 147.613 36.9517C148.13 37.9687 148.388 39.1534 148.388 40.5057C148.388 41.858 148.13 43.0398 147.613 44.0511C147.102 45.0625 146.377 45.8494 145.44 46.4119C144.502 46.9744 143.394 47.2557 142.116 47.2557ZM142.133 44.7841C142.826 44.7841 143.406 44.5937 143.871 44.2131C144.337 43.8267 144.684 43.3097 144.911 42.6619C145.144 42.0142 145.261 41.2926 145.261 40.4972C145.261 39.696 145.144 38.9716 144.911 38.3239C144.684 37.6705 144.337 37.1506 143.871 36.7642C143.406 36.3778 142.826 36.1847 142.133 36.1847C141.423 36.1847 140.832 36.3778 140.36 36.7642C139.894 37.1506 139.545 37.6705 139.312 38.3239C139.085 38.9716 138.971 39.696 138.971 40.4972C138.971 41.2926 139.085 42.0142 139.312 42.6619C139.545 43.3097 139.894 43.8267 140.36 44.2131C140.832 44.5937 141.423 44.7841 142.133 44.7841ZM159.351 41.4943V33.9091H162.436V47H159.445V44.6733H159.308C159.013 45.4062 158.527 46.0057 157.851 46.4716C157.18 46.9375 156.354 47.1705 155.371 47.1705C154.513 47.1705 153.754 46.9801 153.095 46.5994C152.442 46.2131 151.93 45.6534 151.561 44.9205C151.192 44.1818 151.007 43.2898 151.007 42.2443V33.9091H154.092V41.767C154.092 42.5966 154.32 43.2557 154.774 43.7443C155.229 44.233 155.825 44.4773 156.564 44.4773C157.018 44.4773 157.459 44.3665 157.885 44.1449C158.311 43.9233 158.661 43.5938 158.933 43.1562C159.212 42.7131 159.351 42.1591 159.351 41.4943ZM165.609 47V33.9091H168.6V36.0909H168.737C168.975 35.3352 169.384 34.7528 169.964 34.3438C170.549 33.929 171.217 33.7216 171.967 33.7216C172.137 33.7216 172.327 33.7301 172.538 33.7472C172.754 33.7585 172.933 33.7784 173.075 33.8068V36.6449C172.944 36.5994 172.737 36.5597 172.452 36.5256C172.174 36.4858 171.904 36.4659 171.643 36.4659C171.08 36.4659 170.575 36.5881 170.126 36.8324C169.683 37.071 169.333 37.4034 169.077 37.8295C168.822 38.2557 168.694 38.7472 168.694 39.304V47H165.609ZM181.214 47V29.5455H187.896C189.157 29.5455 190.205 29.7443 191.04 30.142C191.881 30.5341 192.509 31.071 192.924 31.7528C193.344 32.4347 193.555 33.2074 193.555 34.071C193.555 34.7812 193.418 35.3892 193.146 35.8949C192.873 36.3949 192.506 36.8011 192.046 37.1136C191.586 37.4261 191.072 37.6506 190.504 37.7869V37.9574C191.123 37.9915 191.717 38.1818 192.285 38.5284C192.859 38.8693 193.327 39.3523 193.691 39.9773C194.055 40.6023 194.237 41.358 194.237 42.2443C194.237 43.1477 194.018 43.9602 193.58 44.6818C193.143 45.3977 192.484 45.9631 191.603 46.3778C190.722 46.7926 189.614 47 188.279 47H181.214ZM184.376 44.358H187.776C188.924 44.358 189.751 44.1392 190.256 43.7017C190.768 43.2585 191.023 42.6903 191.023 41.9972C191.023 41.4801 190.896 41.0142 190.64 40.5994C190.384 40.179 190.021 39.8494 189.549 39.6108C189.077 39.3665 188.515 39.2443 187.862 39.2443H184.376V44.358ZM184.376 36.9688H187.504C188.049 36.9688 188.54 36.8693 188.978 36.6705C189.415 36.4659 189.759 36.179 190.009 35.8097C190.265 35.4347 190.393 34.9915 190.393 34.4801C190.393 33.804 190.154 33.2472 189.677 32.8097C189.205 32.3722 188.504 32.1534 187.572 32.1534H184.376V36.9688ZM205.195 41.4943V33.9091H208.28V47H205.288V44.6733H205.152C204.857 45.4062 204.371 46.0057 203.695 46.4716C203.024 46.9375 202.197 47.1705 201.214 47.1705C200.357 47.1705 199.598 46.9801 198.939 46.5994C198.286 46.2131 197.774 45.6534 197.405 44.9205C197.036 44.1818 196.851 43.2898 196.851 42.2443V33.9091H199.936V41.767C199.936 42.5966 200.163 43.2557 200.618 43.7443C201.072 44.233 201.669 44.4773 202.408 44.4773C202.862 44.4773 203.303 44.3665 203.729 44.1449C204.155 43.9233 204.504 43.5938 204.777 43.1562C205.055 42.7131 205.195 42.1591 205.195 41.4943ZM221.799 37.3693L218.987 37.6761C218.907 37.392 218.768 37.125 218.569 36.875C218.376 36.625 218.114 36.4233 217.785 36.2699C217.455 36.1165 217.052 36.0398 216.575 36.0398C215.933 36.0398 215.393 36.179 214.955 36.4574C214.523 36.7358 214.31 37.0966 214.316 37.5398C214.31 37.9205 214.45 38.2301 214.734 38.4688C215.023 38.7074 215.501 38.9034 216.165 39.0568L218.398 39.5341C219.637 39.8011 220.558 40.2244 221.16 40.804C221.768 41.3835 222.075 42.142 222.08 43.0795C222.075 43.9034 221.833 44.6307 221.356 45.2614C220.884 45.8864 220.228 46.375 219.387 46.7273C218.546 47.0795 217.58 47.2557 216.489 47.2557C214.887 47.2557 213.597 46.9205 212.62 46.25C211.643 45.5739 211.06 44.6335 210.873 43.429L213.881 43.1392C214.018 43.7301 214.308 44.1761 214.751 44.4773C215.194 44.7784 215.771 44.929 216.481 44.929C217.214 44.929 217.802 44.7784 218.245 44.4773C218.694 44.1761 218.918 43.804 218.918 43.3608C218.918 42.9858 218.773 42.6761 218.484 42.4318C218.2 42.1875 217.756 42 217.154 41.8693L214.921 41.4006C213.665 41.1392 212.737 40.6989 212.134 40.0795C211.532 39.4545 211.234 38.6648 211.239 37.7102C211.234 36.9034 211.452 36.2045 211.896 35.6136C212.344 35.017 212.967 34.5568 213.762 34.233C214.563 33.9034 215.487 33.7386 216.532 33.7386C218.066 33.7386 219.273 34.0653 220.154 34.7188C221.04 35.3722 221.589 36.2557 221.799 37.3693ZM234.971 37.3693L232.158 37.6761C232.079 37.392 231.94 37.125 231.741 36.875C231.548 36.625 231.286 36.4233 230.957 36.2699C230.627 36.1165 230.224 36.0398 229.746 36.0398C229.104 36.0398 228.565 36.179 228.127 36.4574C227.695 36.7358 227.482 37.0966 227.488 37.5398C227.482 37.9205 227.621 38.2301 227.906 38.4688C228.195 38.7074 228.673 38.9034 229.337 39.0568L231.57 39.5341C232.809 39.8011 233.729 40.2244 234.332 40.804C234.94 41.3835 235.246 42.142 235.252 43.0795C235.246 43.9034 235.005 44.6307 234.528 45.2614C234.056 45.8864 233.4 46.375 232.559 46.7273C231.718 47.0795 230.752 47.2557 229.661 47.2557C228.059 47.2557 226.769 46.9205 225.792 46.25C224.815 45.5739 224.232 44.6335 224.045 43.429L227.053 43.1392C227.19 43.7301 227.479 44.1761 227.923 44.4773C228.366 44.7784 228.942 44.929 229.653 44.929C230.386 44.929 230.974 44.7784 231.417 44.4773C231.866 44.1761 232.09 43.804 232.09 43.3608C232.09 42.9858 231.945 42.6761 231.656 42.4318C231.371 42.1875 230.928 42 230.326 41.8693L228.093 41.4006C226.837 41.1392 225.908 40.6989 225.306 40.0795C224.704 39.4545 224.406 38.6648 224.411 37.7102C224.406 36.9034 224.624 36.2045 225.067 35.6136C225.516 35.017 226.138 34.5568 226.934 34.233C227.735 33.9034 228.658 33.7386 229.704 33.7386C231.238 33.7386 232.445 34.0653 233.326 34.7188C234.212 35.3722 234.761 36.2557 234.971 37.3693ZM237.796 47V33.9091H240.881V47H237.796ZM239.347 32.0511C238.859 32.0511 238.438 31.8892 238.086 31.5653C237.734 31.2358 237.558 30.8409 237.558 30.3807C237.558 29.9148 237.734 29.5199 238.086 29.196C238.438 28.8665 238.859 28.7017 239.347 28.7017C239.842 28.7017 240.262 28.8665 240.609 29.196C240.961 29.5199 241.137 29.9148 241.137 30.3807C241.137 30.8409 240.961 31.2358 240.609 31.5653C240.262 31.8892 239.842 32.0511 239.347 32.0511ZM247.139 39.3295V47H244.054V33.9091H247.003V36.1335H247.156C247.457 35.4006 247.938 34.8182 248.597 34.3864C249.261 33.9545 250.082 33.7386 251.06 33.7386C251.963 33.7386 252.75 33.9318 253.42 34.3182C254.097 34.7045 254.619 35.2642 254.989 35.9972C255.364 36.7301 255.548 37.6193 255.543 38.6648V47H252.457V39.142C252.457 38.267 252.23 37.5824 251.776 37.0881C251.327 36.5937 250.705 36.3466 249.909 36.3466C249.369 36.3466 248.889 36.4659 248.469 36.7045C248.054 36.9375 247.727 37.2756 247.489 37.7188C247.256 38.1619 247.139 38.6989 247.139 39.3295ZM264.474 47.2557C263.162 47.2557 262.028 46.983 261.074 46.4375C260.125 45.8864 259.395 45.108 258.884 44.1023C258.372 43.0909 258.116 41.9006 258.116 40.5312C258.116 39.1847 258.372 38.0028 258.884 36.9858C259.401 35.9631 260.122 35.1676 261.048 34.5994C261.974 34.0256 263.062 33.7386 264.312 33.7386C265.119 33.7386 265.881 33.8693 266.597 34.1307C267.318 34.3864 267.955 34.7841 268.506 35.3239C269.063 35.8636 269.5 36.5511 269.818 37.3864C270.136 38.2159 270.295 39.2045 270.295 40.3523V41.2983H259.565V39.2188H267.338C267.332 38.6278 267.205 38.1023 266.955 37.642C266.705 37.1761 266.355 36.8097 265.906 36.5426C265.463 36.2756 264.946 36.142 264.355 36.142C263.724 36.142 263.17 36.2955 262.693 36.6023C262.216 36.9034 261.844 37.3011 261.577 37.7955C261.315 38.2841 261.182 38.821 261.176 39.4062V41.2216C261.176 41.983 261.315 42.6364 261.594 43.1818C261.872 43.7216 262.261 44.1364 262.761 44.4261C263.261 44.7102 263.847 44.8523 264.517 44.8523C264.966 44.8523 265.372 44.7898 265.736 44.6648C266.099 44.5341 266.415 44.3438 266.682 44.0938C266.949 43.8438 267.151 43.5341 267.287 43.1648L270.168 43.4886C269.986 44.25 269.639 44.9148 269.128 45.483C268.622 46.0455 267.974 46.483 267.185 46.7955C266.395 47.1023 265.491 47.2557 264.474 47.2557ZM283.252 37.3693L280.44 37.6761C280.36 37.392 280.221 37.125 280.022 36.875C279.829 36.625 279.567 36.4233 279.238 36.2699C278.908 36.1165 278.505 36.0398 278.028 36.0398C277.386 36.0398 276.846 36.179 276.408 36.4574C275.977 36.7358 275.763 37.0966 275.769 37.5398C275.763 37.9205 275.903 38.2301 276.187 38.4688C276.477 38.7074 276.954 38.9034 277.619 39.0568L279.852 39.5341C281.09 39.8011 282.011 40.2244 282.613 40.804C283.221 41.3835 283.528 42.142 283.533 43.0795C283.528 43.9034 283.286 44.6307 282.809 45.2614C282.337 45.8864 281.681 46.375 280.84 46.7273C279.999 47.0795 279.033 47.2557 277.942 47.2557C276.34 47.2557 275.05 46.9205 274.073 46.25C273.096 45.5739 272.513 44.6335 272.326 43.429L275.335 43.1392C275.471 43.7301 275.761 44.1761 276.204 44.4773C276.647 44.7784 277.224 44.929 277.934 44.929C278.667 44.929 279.255 44.7784 279.698 44.4773C280.147 44.1761 280.371 43.804 280.371 43.3608C280.371 42.9858 280.227 42.6761 279.937 42.4318C279.653 42.1875 279.21 42 278.607 41.8693L276.374 41.4006C275.119 41.1392 274.19 40.6989 273.587 40.0795C272.985 39.4545 272.687 38.6648 272.692 37.7102C272.687 36.9034 272.906 36.2045 273.349 35.6136C273.798 35.017 274.42 34.5568 275.215 34.233C276.016 33.9034 276.94 33.7386 277.985 33.7386C279.519 33.7386 280.727 34.0653 281.607 34.7188C282.494 35.3722 283.042 36.2557 283.252 37.3693ZM296.424 37.3693L293.612 37.6761C293.532 37.392 293.393 37.125 293.194 36.875C293.001 36.625 292.739 36.4233 292.41 36.2699C292.08 36.1165 291.677 36.0398 291.2 36.0398C290.558 36.0398 290.018 36.179 289.58 36.4574C289.148 36.7358 288.935 37.0966 288.941 37.5398C288.935 37.9205 289.075 38.2301 289.359 38.4688C289.648 38.7074 290.126 38.9034 290.79 39.0568L293.023 39.5341C294.262 39.8011 295.183 40.2244 295.785 40.804C296.393 41.3835 296.7 42.142 296.705 43.0795C296.7 43.9034 296.458 44.6307 295.981 45.2614C295.509 45.8864 294.853 46.375 294.012 46.7273C293.171 47.0795 292.205 47.2557 291.114 47.2557C289.512 47.2557 288.222 46.9205 287.245 46.25C286.268 45.5739 285.685 44.6335 285.498 43.429L288.506 43.1392C288.643 43.7301 288.933 44.1761 289.376 44.4773C289.819 44.7784 290.396 44.929 291.106 44.929C291.839 44.929 292.427 44.7784 292.87 44.4773C293.319 44.1761 293.543 43.804 293.543 43.3608C293.543 42.9858 293.398 42.6761 293.109 42.4318C292.825 42.1875 292.381 42 291.779 41.8693L289.546 41.4006C288.29 41.1392 287.362 40.6989 286.759 40.0795C286.157 39.4545 285.859 38.6648 285.864 37.7102C285.859 36.9034 286.077 36.2045 286.521 35.6136C286.969 35.017 287.592 34.5568 288.387 34.233C289.188 33.9034 290.112 33.7386 291.157 33.7386C292.691 33.7386 293.898 34.0653 294.779 34.7188C295.665 35.3722 296.214 36.2557 296.424 37.3693ZM309.012 47L304.086 29.5455H307.487L310.631 42.3722H310.793L314.151 29.5455H317.245L320.612 42.3807H320.765L323.91 29.5455H327.31L322.384 47H319.265L315.771 34.7528H315.634L312.131 47H309.012ZM329.366 47V33.9091H332.452V47H329.366ZM330.918 32.0511C330.429 32.0511 330.009 31.8892 329.656 31.5653C329.304 31.2358 329.128 30.8409 329.128 30.3807C329.128 29.9148 329.304 29.5199 329.656 29.196C330.009 28.8665 330.429 28.7017 330.918 28.7017C331.412 28.7017 331.832 28.8665 332.179 29.196C332.531 29.5199 332.707 29.9148 332.707 30.3807C332.707 30.8409 332.531 31.2358 332.179 31.5653C331.832 31.8892 331.412 32.0511 330.918 32.0511ZM342.161 33.9091V36.2955H334.636V33.9091H342.161ZM336.494 30.7727H339.579V43.0625C339.579 43.4773 339.641 43.7955 339.766 44.017C339.897 44.233 340.067 44.3807 340.278 44.4602C340.488 44.5398 340.721 44.5795 340.977 44.5795C341.17 44.5795 341.346 44.5653 341.505 44.5369C341.67 44.5085 341.795 44.483 341.88 44.4602L342.4 46.8722C342.235 46.929 341.999 46.9915 341.692 47.0597C341.391 47.1278 341.022 47.1676 340.585 47.179C339.812 47.2017 339.116 47.0852 338.496 46.8295C337.877 46.5682 337.386 46.1648 337.022 45.6193C336.664 45.0739 336.488 44.392 336.494 43.5739V30.7727ZM348.108 39.3295V47H345.023V29.5455H348.04V36.1335H348.193C348.5 35.3949 348.974 34.8125 349.616 34.3864C350.264 33.9545 351.088 33.7386 352.088 33.7386C352.997 33.7386 353.79 33.929 354.466 34.3097C355.142 34.6903 355.665 35.2472 356.034 35.9801C356.409 36.7131 356.597 37.608 356.597 38.6648V47H353.511V39.142C353.511 38.2614 353.284 37.5767 352.83 37.0881C352.381 36.5937 351.75 36.3466 350.938 36.3466C350.392 36.3466 349.903 36.4659 349.472 36.7045C349.045 36.9375 348.71 37.2756 348.466 37.7188C348.227 38.1619 348.108 38.6989 348.108 39.3295ZM376.834 29.5455H379.996V40.9489C379.996 42.1989 379.7 43.2983 379.109 44.2472C378.524 45.196 377.7 45.9375 376.638 46.4716C375.575 47 374.334 47.2642 372.913 47.2642C371.487 47.2642 370.243 47 369.18 46.4716C368.118 45.9375 367.294 45.196 366.709 44.2472C366.124 43.2983 365.831 42.1989 365.831 40.9489V29.5455H368.993V40.6847C368.993 41.4119 369.152 42.0597 369.47 42.6278C369.794 43.196 370.249 43.642 370.834 43.9659C371.419 44.2841 372.112 44.4432 372.913 44.4432C373.714 44.4432 374.408 44.2841 374.993 43.9659C375.584 43.642 376.038 43.196 376.357 42.6278C376.675 42.0597 376.834 41.4119 376.834 40.6847V29.5455ZM393.643 37.3693L390.83 37.6761C390.751 37.392 390.612 37.125 390.413 36.875C390.219 36.625 389.958 36.4233 389.629 36.2699C389.299 36.1165 388.896 36.0398 388.418 36.0398C387.776 36.0398 387.237 36.179 386.799 36.4574C386.367 36.7358 386.154 37.0966 386.16 37.5398C386.154 37.9205 386.293 38.2301 386.577 38.4688C386.867 38.7074 387.344 38.9034 388.009 39.0568L390.242 39.5341C391.481 39.8011 392.401 40.2244 393.004 40.804C393.612 41.3835 393.918 42.142 393.924 43.0795C393.918 43.9034 393.677 44.6307 393.2 45.2614C392.728 45.8864 392.072 46.375 391.231 46.7273C390.39 47.0795 389.424 47.2557 388.333 47.2557C386.731 47.2557 385.441 46.9205 384.464 46.25C383.487 45.5739 382.904 44.6335 382.717 43.429L385.725 43.1392C385.862 43.7301 386.151 44.1761 386.594 44.4773C387.038 44.7784 387.614 44.929 388.325 44.929C389.058 44.929 389.646 44.7784 390.089 44.4773C390.538 44.1761 390.762 43.804 390.762 43.3608C390.762 42.9858 390.617 42.6761 390.327 42.4318C390.043 42.1875 389.6 42 388.998 41.8693L386.765 41.4006C385.509 41.1392 384.58 40.6989 383.978 40.0795C383.376 39.4545 383.077 38.6648 383.083 37.7102C383.077 36.9034 383.296 36.2045 383.739 35.6136C384.188 35.017 384.81 34.5568 385.606 34.233C386.407 33.9034 387.33 33.7386 388.376 33.7386C389.91 33.7386 391.117 34.0653 391.998 34.7188C392.884 35.3722 393.433 36.2557 393.643 37.3693Z" fill="white"/>
<path d="M97.1136 102V84.5455H99.2273V92.3182H108.534V84.5455H110.648V102H108.534V94.1932H99.2273V102H97.1136ZM122.857 96.6477V88.9091H124.868V102H122.857V99.7841H122.72C122.413 100.449 121.936 101.014 121.288 101.48C120.641 101.94 119.822 102.17 118.834 102.17C118.016 102.17 117.288 101.991 116.652 101.634C116.016 101.27 115.516 100.724 115.152 99.9972C114.788 99.2642 114.607 98.3409 114.607 97.2273V88.9091H116.618V97.0909C116.618 98.0455 116.885 98.8068 117.419 99.375C117.959 99.9432 118.646 100.227 119.482 100.227C119.982 100.227 120.49 100.099 121.007 99.8438C121.53 99.5881 121.967 99.196 122.32 98.6676C122.678 98.1392 122.857 97.4659 122.857 96.6477ZM128.552 102V88.9091H130.495V90.8864H130.631C130.87 90.2386 131.302 89.7131 131.927 89.3097C132.552 88.9062 133.256 88.7045 134.04 88.7045C134.188 88.7045 134.373 88.7074 134.594 88.7131C134.816 88.7187 134.984 88.7273 135.097 88.7386V90.7841C135.029 90.767 134.873 90.7415 134.629 90.7074C134.39 90.6676 134.137 90.6477 133.87 90.6477C133.234 90.6477 132.665 90.7812 132.165 91.0483C131.671 91.3097 131.279 91.6733 130.989 92.1392C130.705 92.5994 130.563 93.125 130.563 93.7159V102H128.552ZM137.482 102V88.9091H139.425V90.8864H139.561C139.8 90.2386 140.232 89.7131 140.857 89.3097C141.482 88.9062 142.186 88.7045 142.97 88.7045C143.118 88.7045 143.303 88.7074 143.524 88.7131C143.746 88.7187 143.913 88.7273 144.027 88.7386V90.7841C143.959 90.767 143.803 90.7415 143.558 90.7074C143.32 90.6676 143.067 90.6477 142.8 90.6477C142.163 90.6477 141.595 90.7812 141.095 91.0483C140.601 91.3097 140.209 91.6733 139.919 92.1392C139.635 92.5994 139.493 93.125 139.493 93.7159V102H137.482ZM148.105 106.909C147.764 106.909 147.46 106.881 147.193 106.824C146.926 106.773 146.741 106.722 146.639 106.67L147.151 104.898C147.639 105.023 148.071 105.068 148.446 105.034C148.821 105 149.153 104.832 149.443 104.531C149.739 104.236 150.009 103.756 150.253 103.091L150.628 102.068L145.787 88.9091H147.969L151.582 99.3409H151.719L155.332 88.9091H157.514L151.957 103.909C151.707 104.585 151.398 105.145 151.028 105.588C150.659 106.037 150.23 106.369 149.741 106.585C149.259 106.801 148.713 106.909 148.105 106.909ZM181.919 93.2727C181.919 95.1136 181.587 96.7045 180.922 98.0455C180.257 99.3864 179.345 100.42 178.186 101.148C177.027 101.875 175.703 102.239 174.214 102.239C172.726 102.239 171.402 101.875 170.243 101.148C169.084 100.42 168.172 99.3864 167.507 98.0455C166.842 96.7045 166.51 95.1136 166.51 93.2727C166.51 91.4318 166.842 89.8409 167.507 88.5C168.172 87.1591 169.084 86.125 170.243 85.3977C171.402 84.6705 172.726 84.3068 174.214 84.3068C175.703 84.3068 177.027 84.6705 178.186 85.3977C179.345 86.125 180.257 87.1591 180.922 88.5C181.587 89.8409 181.919 91.4318 181.919 93.2727ZM179.874 93.2727C179.874 91.7614 179.621 90.4858 179.115 89.446C178.615 88.4062 177.936 87.6193 177.078 87.0852C176.226 86.5511 175.271 86.2841 174.214 86.2841C173.158 86.2841 172.2 86.5511 171.342 87.0852C170.49 87.6193 169.811 88.4062 169.305 89.446C168.805 90.4858 168.555 91.7614 168.555 93.2727C168.555 94.7841 168.805 96.0597 169.305 97.0994C169.811 98.1392 170.49 98.9261 171.342 99.4602C172.2 99.9943 173.158 100.261 174.214 100.261C175.271 100.261 176.226 99.9943 177.078 99.4602C177.936 98.9261 178.615 98.1392 179.115 97.0994C179.621 96.0597 179.874 94.7841 179.874 93.2727ZM191.03 88.9091V90.6136H183.973V88.9091H191.03ZM186.087 102V87.1023C186.087 86.3523 186.263 85.7273 186.615 85.2273C186.967 84.7273 187.425 84.3523 187.987 84.1023C188.55 83.8523 189.143 83.7273 189.768 83.7273C190.263 83.7273 190.666 83.767 190.979 83.8466C191.291 83.9261 191.524 84 191.678 84.0682L191.098 85.8068C190.996 85.7727 190.854 85.7301 190.672 85.679C190.496 85.6278 190.263 85.6023 189.973 85.6023C189.308 85.6023 188.828 85.7699 188.533 86.1051C188.243 86.4403 188.098 86.9318 188.098 87.5795V102H186.087ZM199.678 88.9091V90.6136H192.621V88.9091H199.678ZM194.735 102V87.1023C194.735 86.3523 194.911 85.7273 195.263 85.2273C195.616 84.7273 196.073 84.3523 196.636 84.1023C197.198 83.8523 197.792 83.7273 198.417 83.7273C198.911 83.7273 199.315 83.767 199.627 83.8466C199.94 83.9261 200.173 84 200.326 84.0682L199.746 85.8068C199.644 85.7727 199.502 85.7301 199.32 85.679C199.144 85.6278 198.911 85.6023 198.621 85.6023C197.957 85.6023 197.477 85.7699 197.181 86.1051C196.891 86.4403 196.746 86.9318 196.746 87.5795V102H194.735ZM207.447 102.273C206.185 102.273 205.097 101.994 204.183 101.438C203.273 100.875 202.572 100.091 202.077 99.0852C201.589 98.0739 201.344 96.8977 201.344 95.5568C201.344 94.2159 201.589 93.0341 202.077 92.0114C202.572 90.983 203.259 90.1818 204.14 89.608C205.026 89.0284 206.06 88.7386 207.242 88.7386C207.924 88.7386 208.597 88.8523 209.262 89.0795C209.927 89.3068 210.532 89.6761 211.077 90.1875C211.623 90.6932 212.058 91.3636 212.381 92.1989C212.705 93.0341 212.867 94.0625 212.867 95.2841V96.1364H202.776V94.3977H210.822C210.822 93.6591 210.674 93 210.379 92.4205C210.089 91.8409 209.674 91.3835 209.134 91.0483C208.6 90.7131 207.969 90.5455 207.242 90.5455C206.441 90.5455 205.748 90.7443 205.163 91.142C204.583 91.5341 204.137 92.0455 203.825 92.6761C203.512 93.3068 203.356 93.983 203.356 94.7045V95.8636C203.356 96.8523 203.526 97.6903 203.867 98.3778C204.214 99.0597 204.694 99.5795 205.308 99.9375C205.921 100.29 206.634 100.466 207.447 100.466C207.975 100.466 208.452 100.392 208.879 100.244C209.31 100.091 209.683 99.8636 209.995 99.5625C210.308 99.2557 210.549 98.875 210.719 98.4205L212.663 98.9659C212.458 99.625 212.114 100.205 211.631 100.705C211.148 101.199 210.552 101.585 209.842 101.864C209.131 102.136 208.333 102.273 207.447 102.273ZM215.927 102V88.9091H217.87V90.8864H218.006C218.245 90.2386 218.677 89.7131 219.302 89.3097C219.927 88.9062 220.631 88.7045 221.415 88.7045C221.563 88.7045 221.748 88.7074 221.969 88.7131C222.191 88.7187 222.359 88.7273 222.472 88.7386V90.7841C222.404 90.767 222.248 90.7415 222.004 90.7074C221.765 90.6676 221.512 90.6477 221.245 90.6477C220.609 90.6477 220.04 90.7812 219.54 91.0483C219.046 91.3097 218.654 91.6733 218.364 92.1392C218.08 92.5994 217.938 93.125 217.938 93.7159V102H215.927ZM231.879 102V84.5455H242.413V86.4205H233.993V92.3182H241.868V94.1932H233.993V100.125H242.55V102H231.879ZM247.962 94.125V102H245.95V88.9091H247.893V90.9545H248.064C248.371 90.2898 248.837 89.7557 249.462 89.3523C250.087 88.9432 250.893 88.7386 251.882 88.7386C252.768 88.7386 253.544 88.9205 254.209 89.2841C254.874 89.642 255.391 90.1875 255.76 90.9205C256.129 91.6477 256.314 92.5682 256.314 93.6818V102H254.303V93.8182C254.303 92.7898 254.036 91.9886 253.501 91.4148C252.967 90.8352 252.234 90.5455 251.303 90.5455C250.661 90.5455 250.087 90.6847 249.581 90.9631C249.081 91.2415 248.686 91.6477 248.396 92.1818C248.107 92.7159 247.962 93.3636 247.962 94.125ZM264.933 102.273C263.842 102.273 262.879 101.997 262.043 101.446C261.208 100.889 260.555 100.105 260.083 99.0938C259.612 98.0767 259.376 96.875 259.376 95.4886C259.376 94.1136 259.612 92.9205 260.083 91.9091C260.555 90.8977 261.211 90.1165 262.052 89.5653C262.893 89.0142 263.864 88.7386 264.967 88.7386C265.819 88.7386 266.492 88.8807 266.987 89.1648C267.487 89.4432 267.867 89.7614 268.129 90.1193C268.396 90.4716 268.603 90.7614 268.751 90.9886H268.921V84.5455H270.933V102H268.989V99.9886H268.751C268.603 100.227 268.393 100.528 268.12 100.892C267.847 101.25 267.458 101.571 266.952 101.855C266.447 102.134 265.773 102.273 264.933 102.273ZM265.205 100.466C266.012 100.466 266.694 100.256 267.251 99.8352C267.808 99.4091 268.231 98.821 268.521 98.071C268.81 97.3153 268.955 96.4432 268.955 95.4545C268.955 94.4773 268.813 93.6222 268.529 92.8892C268.245 92.1506 267.825 91.5767 267.268 91.1676C266.711 90.7528 266.023 90.5455 265.205 90.5455C264.353 90.5455 263.643 90.7642 263.075 91.2017C262.512 91.6335 262.089 92.2216 261.805 92.9659C261.526 93.7045 261.387 94.5341 261.387 95.4545C261.387 96.3864 261.529 97.233 261.813 97.9943C262.103 98.75 262.529 99.3523 263.092 99.8011C263.66 100.244 264.364 100.466 265.205 100.466ZM284.168 91.8409L282.362 92.3523C282.248 92.0511 282.08 91.7585 281.859 91.4744C281.643 91.1847 281.347 90.946 280.972 90.7585C280.597 90.571 280.117 90.4773 279.532 90.4773C278.731 90.4773 278.063 90.6619 277.529 91.0312C277.001 91.3949 276.737 91.858 276.737 92.4205C276.737 92.9205 276.918 93.3153 277.282 93.6051C277.646 93.8949 278.214 94.1364 278.987 94.3295L280.93 94.8068C282.1 95.0909 282.972 95.5256 283.546 96.1108C284.12 96.6903 284.407 97.4375 284.407 98.3523C284.407 99.1023 284.191 99.7727 283.759 100.364C283.333 100.955 282.737 101.42 281.969 101.761C281.202 102.102 280.31 102.273 279.293 102.273C277.958 102.273 276.853 101.983 275.978 101.403C275.103 100.824 274.549 99.9773 274.316 98.8636L276.225 98.3864C276.407 99.0909 276.751 99.6193 277.256 99.9716C277.768 100.324 278.435 100.5 279.259 100.5C280.197 100.5 280.941 100.301 281.492 99.9034C282.049 99.5 282.327 99.017 282.327 98.4545C282.327 98 282.168 97.6193 281.85 97.3125C281.532 97 281.043 96.767 280.384 96.6136L278.202 96.1023C277.004 95.8182 276.123 95.3778 275.56 94.7812C275.004 94.179 274.725 93.4261 274.725 92.5227C274.725 91.7841 274.933 91.1307 275.347 90.5625C275.768 89.9943 276.339 89.5483 277.06 89.2244C277.788 88.9006 278.612 88.7386 279.532 88.7386C280.827 88.7386 281.844 89.0227 282.583 89.5909C283.327 90.1591 283.856 90.9091 284.168 91.8409ZM304.003 88.9091C303.901 88.0455 303.486 87.375 302.759 86.8977C302.031 86.4205 301.139 86.1818 300.082 86.1818C299.31 86.1818 298.634 86.3068 298.054 86.5568C297.48 86.8068 297.031 87.1506 296.707 87.5881C296.389 88.0256 296.23 88.5227 296.23 89.0795C296.23 89.5455 296.341 89.946 296.562 90.2812C296.79 90.6108 297.08 90.8864 297.432 91.108C297.784 91.3239 298.153 91.5028 298.54 91.6449C298.926 91.7812 299.281 91.892 299.605 91.9773L301.378 92.4545C301.832 92.5739 302.338 92.7386 302.895 92.9489C303.457 93.1591 303.994 93.446 304.506 93.8097C305.023 94.1676 305.449 94.6278 305.784 95.1903C306.119 95.7528 306.287 96.4432 306.287 97.2614C306.287 98.2045 306.04 99.0568 305.545 99.8182C305.057 100.58 304.341 101.185 303.398 101.634C302.46 102.082 301.321 102.307 299.98 102.307C298.73 102.307 297.648 102.105 296.733 101.702C295.824 101.298 295.108 100.736 294.585 100.014C294.068 99.2926 293.776 98.4545 293.707 97.5H295.889C295.946 98.1591 296.168 98.7045 296.554 99.1364C296.946 99.5625 297.44 99.8807 298.037 100.091C298.639 100.295 299.287 100.398 299.98 100.398C300.787 100.398 301.511 100.267 302.153 100.006C302.795 99.7386 303.304 99.3693 303.679 98.8977C304.054 98.4205 304.241 97.8636 304.241 97.2273C304.241 96.6477 304.08 96.1761 303.756 95.8125C303.432 95.4489 303.006 95.1534 302.477 94.9261C301.949 94.6989 301.378 94.5 300.764 94.3295L298.616 93.7159C297.253 93.3239 296.173 92.7642 295.378 92.0369C294.582 91.3097 294.185 90.358 294.185 89.1818C294.185 88.2045 294.449 87.3523 294.977 86.625C295.511 85.892 296.227 85.3239 297.125 84.9205C298.028 84.5114 299.037 84.3068 300.151 84.3068C301.276 84.3068 302.276 84.5085 303.151 84.9119C304.026 85.3097 304.719 85.8551 305.23 86.5483C305.747 87.2415 306.02 88.0284 306.048 88.9091H304.003ZM314.808 102.273C313.626 102.273 312.589 101.991 311.697 101.429C310.81 100.866 310.117 100.08 309.617 99.0682C309.123 98.0568 308.876 96.875 308.876 95.5227C308.876 94.1591 309.123 92.9687 309.617 91.9517C310.117 90.9347 310.81 90.1449 311.697 89.5824C312.589 89.0199 313.626 88.7386 314.808 88.7386C315.989 88.7386 317.023 89.0199 317.91 89.5824C318.802 90.1449 319.495 90.9347 319.989 91.9517C320.489 92.9687 320.739 94.1591 320.739 95.5227C320.739 96.875 320.489 98.0568 319.989 99.0682C319.495 100.08 318.802 100.866 317.91 101.429C317.023 101.991 315.989 102.273 314.808 102.273ZM314.808 100.466C315.705 100.466 316.444 100.236 317.023 99.7756C317.603 99.3153 318.032 98.7102 318.31 97.9602C318.589 97.2102 318.728 96.3977 318.728 95.5227C318.728 94.6477 318.589 93.8324 318.31 93.0767C318.032 92.321 317.603 91.7102 317.023 91.2443C316.444 90.7784 315.705 90.5455 314.808 90.5455C313.91 90.5455 313.171 90.7784 312.592 91.2443C312.012 91.7102 311.583 92.321 311.305 93.0767C311.026 93.8324 310.887 94.6477 310.887 95.5227C310.887 96.3977 311.026 97.2102 311.305 97.9602C311.583 98.7102 312.012 99.3153 312.592 99.7756C313.171 100.236 313.91 100.466 314.808 100.466ZM329.128 102.273C327.946 102.273 326.909 101.991 326.017 101.429C325.131 100.866 324.438 100.08 323.938 99.0682C323.443 98.0568 323.196 96.875 323.196 95.5227C323.196 94.1591 323.443 92.9687 323.938 91.9517C324.438 90.9347 325.131 90.1449 326.017 89.5824C326.909 89.0199 327.946 88.7386 329.128 88.7386C330.31 88.7386 331.344 89.0199 332.23 89.5824C333.122 90.1449 333.815 90.9347 334.31 91.9517C334.81 92.9687 335.06 94.1591 335.06 95.5227C335.06 96.875 334.81 98.0568 334.31 99.0682C333.815 100.08 333.122 100.866 332.23 101.429C331.344 101.991 330.31 102.273 329.128 102.273ZM329.128 100.466C330.026 100.466 330.764 100.236 331.344 99.7756C331.923 99.3153 332.352 98.7102 332.631 97.9602C332.909 97.2102 333.048 96.3977 333.048 95.5227C333.048 94.6477 332.909 93.8324 332.631 93.0767C332.352 92.321 331.923 91.7102 331.344 91.2443C330.764 90.7784 330.026 90.5455 329.128 90.5455C328.23 90.5455 327.491 90.7784 326.912 91.2443C326.332 91.7102 325.903 92.321 325.625 93.0767C325.347 93.8324 325.207 94.6477 325.207 95.5227C325.207 96.3977 325.347 97.2102 325.625 97.9602C325.903 98.7102 326.332 99.3153 326.912 99.7756C327.491 100.236 328.23 100.466 329.128 100.466ZM340.141 94.125V102H338.13V88.9091H340.073V90.9545H340.244C340.55 90.2898 341.016 89.7557 341.641 89.3523C342.266 88.9432 343.073 88.7386 344.062 88.7386C344.948 88.7386 345.724 88.9205 346.388 89.2841C347.053 89.642 347.57 90.1875 347.94 90.9205C348.309 91.6477 348.494 92.5682 348.494 93.6818V102H346.482V93.8182C346.482 92.7898 346.215 91.9886 345.681 91.4148C345.147 90.8352 344.414 90.5455 343.482 90.5455C342.84 90.5455 342.266 90.6847 341.761 90.9631C341.261 91.2415 340.866 91.6477 340.576 92.1818C340.286 92.7159 340.141 93.3636 340.141 94.125Z" fill="white"/>
<path d="M1020 30C1020 25.5817 1023.58 22 1028 22H1232C1236.42 22 1240 25.5817 1240 30V94C1240 98.4183 1236.42 102 1232 102H1028C1023.58 102 1020 98.4183 1020 94V30Z" fill="#2BA0F4" fill-opacity="0.9"/>
<path d="M1074.77 56.5548H1072.16C1072.15 55.9867 1072.05 55.4867 1071.85 55.0548C1071.65 54.6173 1071.38 54.2509 1071.03 53.9554C1070.69 53.6543 1070.29 53.427 1069.83 53.2736C1069.37 53.1202 1068.87 53.0435 1068.34 53.0435C1067.31 53.0435 1066.34 53.3048 1065.44 53.8276C1064.53 54.3503 1063.76 55.1117 1063.13 56.1117C1062.49 57.1117 1062.05 58.3304 1061.82 59.7679C1061.58 61.1656 1061.61 62.3389 1061.9 63.2878C1062.19 64.2367 1062.68 64.9554 1063.37 65.444C1064.06 65.927 1064.89 66.1685 1065.86 66.1685C1066.43 66.1685 1066.99 66.0946 1067.53 65.9469C1068.07 65.7935 1068.58 65.569 1069.04 65.2736C1069.51 64.9781 1069.92 64.6173 1070.28 64.1912C1070.64 63.7594 1070.93 63.2651 1071.13 62.7083H1073.77C1073.49 63.5719 1073.09 64.3617 1072.57 65.0776C1072.05 65.7935 1071.44 66.4128 1070.74 66.9355C1070.03 67.4583 1069.26 67.8617 1068.42 68.1458C1067.58 68.4298 1066.69 68.5719 1065.75 68.5719C1064.21 68.5719 1062.9 68.2054 1061.82 67.4725C1060.74 66.7338 1059.96 65.6827 1059.49 64.319C1059.02 62.9554 1058.94 61.3304 1059.25 59.444C1059.56 57.6088 1060.16 56.035 1061.04 54.7225C1061.93 53.4043 1063.01 52.3958 1064.28 51.6969C1065.56 50.9923 1066.94 50.6401 1068.42 50.6401C1069.36 50.6401 1070.22 50.7736 1070.99 51.0406C1071.77 51.302 1072.44 51.6884 1073.01 52.1997C1073.57 52.7054 1074.01 53.3247 1074.32 54.0577C1074.63 54.785 1074.78 55.6173 1074.77 56.5548ZM1081.36 68.5975C1080.11 68.5975 1079.07 68.3134 1078.24 67.7452C1077.4 67.1713 1076.81 66.3702 1076.47 65.3418C1076.14 64.3077 1076.08 63.106 1076.3 61.7367C1076.52 60.3958 1076.95 59.2253 1077.61 58.2253C1078.27 57.2253 1079.09 56.4497 1080.08 55.8986C1081.07 55.3475 1082.18 55.0719 1083.39 55.0719C1084.64 55.0719 1085.67 55.3588 1086.5 55.9327C1087.34 56.5065 1087.93 57.3105 1088.27 58.3446C1088.61 59.3787 1088.67 60.5833 1088.45 61.9583C1088.23 63.2878 1087.79 64.4526 1087.13 65.4526C1086.47 66.4469 1085.64 67.2196 1084.65 67.7708C1083.67 68.3219 1082.57 68.5975 1081.36 68.5975ZM1081.5 66.4583C1082.32 66.4583 1083.03 66.2423 1083.64 65.8105C1084.25 65.3787 1084.75 64.8048 1085.14 64.0889C1085.53 63.373 1085.79 62.5889 1085.93 61.7367C1086.06 60.9128 1086.06 60.16 1085.92 59.4781C1085.79 58.7906 1085.51 58.2395 1085.07 57.8247C1084.63 57.41 1084.03 57.2026 1083.25 57.2026C1082.43 57.2026 1081.71 57.4213 1081.09 57.8588C1080.48 58.2906 1079.98 58.8673 1079.59 59.5889C1079.21 60.3105 1078.95 61.0975 1078.82 61.9497C1078.69 62.7679 1078.69 63.5208 1078.82 64.2083C1078.95 64.8901 1079.23 65.4355 1079.67 65.8446C1080.11 66.2537 1080.72 66.4583 1081.5 66.4583ZM1094.08 60.5605L1092.8 68.3333H1090.25L1092.43 55.2423H1094.88L1094.52 57.373H1094.68C1095.1 56.6742 1095.66 56.1173 1096.38 55.7026C1097.1 55.2821 1097.95 55.0719 1098.94 55.0719C1099.82 55.0719 1100.57 55.2594 1101.17 55.6344C1101.78 56.0037 1102.21 56.5548 1102.46 57.2878C1102.71 58.0208 1102.75 58.927 1102.58 60.0065L1101.18 68.3333H1098.63L1099.97 60.3134C1100.12 59.3645 1100 58.623 1099.59 58.0889C1099.19 57.5492 1098.56 57.2793 1097.69 57.2793C1097.1 57.2793 1096.55 57.4071 1096.05 57.6628C1095.55 57.9185 1095.12 58.2935 1094.78 58.7878C1094.44 59.2764 1094.2 59.8673 1094.08 60.5605ZM1112.88 55.2423L1112.55 57.2878H1105.4L1105.73 55.2423H1112.88ZM1108.16 52.106H1110.71L1108.64 64.4895C1108.56 64.9838 1108.58 65.356 1108.69 65.606C1108.79 65.8503 1108.96 66.0179 1109.18 66.1088C1109.41 66.194 1109.66 66.2367 1109.94 66.2367C1110.14 66.2367 1110.32 66.2225 1110.48 66.194C1110.63 66.1656 1110.75 66.1429 1110.84 66.1259L1110.98 68.231C1110.81 68.2878 1110.58 68.3446 1110.29 68.4014C1110 68.4639 1109.66 68.498 1109.25 68.5037C1108.58 68.5151 1107.97 68.3958 1107.43 68.1458C1106.89 67.8901 1106.49 67.5037 1106.22 66.9867C1105.96 66.4639 1105.89 65.8077 1106.03 65.0179L1108.16 52.106ZM1117.29 68.623C1116.46 68.623 1115.74 68.4696 1115.12 68.1628C1114.5 67.8503 1114.04 67.3986 1113.75 66.8077C1113.45 66.2168 1113.37 65.4923 1113.52 64.6344C1113.64 63.8958 1113.89 63.2878 1114.25 62.8105C1114.62 62.3333 1115.07 61.9554 1115.6 61.677C1116.12 61.3929 1116.7 61.1798 1117.32 61.0378C1117.94 60.8958 1118.56 60.7906 1119.19 60.7225C1119.99 60.6315 1120.63 60.5548 1121.13 60.4923C1121.63 60.4298 1122 60.3333 1122.25 60.2026C1122.5 60.0662 1122.65 59.8446 1122.7 59.5378V59.4781C1122.82 58.7395 1122.72 58.1656 1122.38 57.7565C1122.05 57.3418 1121.48 57.1344 1120.66 57.1344C1119.81 57.1344 1119.09 57.3219 1118.51 57.6969C1117.94 58.0719 1117.51 58.4923 1117.24 58.9583L1114.96 58.4128C1115.37 57.6173 1115.89 56.9753 1116.52 56.4867C1117.15 55.9923 1117.85 55.6344 1118.6 55.4128C1119.36 55.1855 1120.13 55.0719 1120.92 55.0719C1121.45 55.0719 1121.99 55.1344 1122.55 55.2594C1123.11 55.3787 1123.62 55.6003 1124.08 55.9242C1124.55 56.248 1124.9 56.7111 1125.12 57.3134C1125.35 57.91 1125.39 58.6855 1125.23 59.6401L1123.79 68.3333H1121.3L1121.6 66.5435H1121.5C1121.29 66.873 1120.99 67.1969 1120.6 67.5151C1120.22 67.8333 1119.75 68.0975 1119.2 68.3077C1118.65 68.5179 1118.01 68.623 1117.29 68.623ZM1118.16 66.5776C1118.87 66.5776 1119.5 66.4384 1120.04 66.16C1120.6 65.8815 1121.04 65.5179 1121.38 65.069C1121.72 64.6145 1121.94 64.1287 1122.02 63.6117L1122.3 61.9242C1122.2 62.0151 1122.01 62.0975 1121.73 62.1713C1121.47 62.2452 1121.16 62.3105 1120.83 62.3673C1120.49 62.4242 1120.16 62.4725 1119.84 62.5122C1119.52 62.552 1119.26 62.5889 1119.05 62.623C1118.55 62.6855 1118.08 62.7906 1117.64 62.9384C1117.21 63.0861 1116.85 63.2992 1116.56 63.5776C1116.27 63.8503 1116.09 64.2139 1116.01 64.6685C1115.91 65.2992 1116.06 65.7764 1116.47 66.1003C1116.87 66.4185 1117.44 66.5776 1118.16 66.5776ZM1132.66 68.5975C1131.39 68.5975 1130.35 68.3105 1129.53 67.7367C1128.72 67.1571 1128.16 66.3588 1127.84 65.3418C1127.52 64.3247 1127.47 63.16 1127.68 61.8475C1127.9 60.5179 1128.34 59.3446 1129 58.3276C1129.67 57.3048 1130.51 56.5065 1131.52 55.9327C1132.53 55.3588 1133.65 55.0719 1134.89 55.0719C1135.88 55.0719 1136.73 55.2565 1137.45 55.6259C1138.17 55.9895 1138.71 56.5009 1139.08 57.16C1139.45 57.819 1139.61 58.5889 1139.56 59.4696H1137.08C1137.04 58.856 1136.81 58.3276 1136.39 57.8844C1135.98 57.4412 1135.37 57.2196 1134.56 57.2196C1133.85 57.2196 1133.2 57.4071 1132.6 57.7821C1132 58.1514 1131.5 58.6798 1131.09 59.3673C1130.68 60.0492 1130.41 60.856 1130.26 61.7878C1130.1 62.7423 1130.11 63.5662 1130.28 64.2594C1130.46 64.9526 1130.78 65.4895 1131.25 65.8702C1131.73 66.2509 1132.32 66.4412 1133.04 66.4412C1133.52 66.4412 1133.98 66.3531 1134.4 66.177C1134.83 65.9952 1135.2 65.7367 1135.52 65.4014C1135.85 65.0662 1136.11 64.6628 1136.29 64.1912H1138.78C1138.54 65.0378 1138.13 65.7935 1137.55 66.4583C1136.98 67.123 1136.29 67.6458 1135.46 68.0264C1134.63 68.4071 1133.69 68.5975 1132.66 68.5975ZM1149.09 55.2423L1148.76 57.2878H1141.61L1141.94 55.2423H1149.09ZM1144.37 52.106H1146.92L1144.85 64.4895C1144.78 64.9838 1144.79 65.356 1144.9 65.606C1145.01 65.8503 1145.17 66.0179 1145.39 66.1088C1145.62 66.194 1145.87 66.2367 1146.15 66.2367C1146.35 66.2367 1146.53 66.2225 1146.69 66.194C1146.84 66.1656 1146.96 66.1429 1147.05 66.1259L1147.19 68.231C1147.02 68.2878 1146.79 68.3446 1146.5 68.4014C1146.22 68.4639 1145.87 68.498 1145.46 68.5037C1144.79 68.5151 1144.18 68.3958 1143.64 68.1458C1143.1 67.8901 1142.7 67.5037 1142.43 66.9867C1142.17 66.4639 1142.1 65.8077 1142.24 65.0179L1144.37 52.106ZM1170.41 50.8787H1173.05L1171.15 62.3588C1170.95 63.5804 1170.48 64.6628 1169.75 65.606C1169.02 66.5435 1168.08 67.2821 1166.95 67.8219C1165.82 68.356 1164.56 68.623 1163.17 68.623C1161.77 68.623 1160.6 68.356 1159.65 67.8219C1158.7 67.2821 1158.02 66.5435 1157.6 65.606C1157.18 64.6628 1157.08 63.5804 1157.28 62.3588L1159.18 50.8787H1161.81L1159.95 62.1458C1159.82 62.9355 1159.88 63.6372 1160.13 64.2509C1160.38 64.8645 1160.79 65.3475 1161.37 65.6997C1161.96 66.0463 1162.69 66.2196 1163.58 66.2196C1164.47 66.2196 1165.26 66.0463 1165.96 65.6997C1166.66 65.3475 1167.24 64.8645 1167.68 64.2509C1168.13 63.6372 1168.41 62.9355 1168.54 62.1458L1170.41 50.8787ZM1185.24 58.4384L1182.86 58.8475C1182.81 58.5463 1182.7 58.2622 1182.54 57.9952C1182.39 57.7281 1182.16 57.5122 1181.84 57.3475C1181.52 57.177 1181.1 57.0918 1180.57 57.0918C1179.83 57.0918 1179.19 57.2594 1178.64 57.5946C1178.1 57.9298 1177.78 58.356 1177.7 58.873C1177.63 59.2935 1177.73 59.6344 1178 59.8958C1178.27 60.1514 1178.75 60.3645 1179.44 60.535L1181.45 61.0122C1182.61 61.2906 1183.44 61.7253 1183.94 62.3162C1184.45 62.9014 1184.62 63.6628 1184.47 64.6003C1184.34 65.3787 1184 66.069 1183.45 66.6713C1182.9 67.2736 1182.2 67.7452 1181.35 68.0861C1180.5 68.427 1179.55 68.5975 1178.5 68.5975C1177.02 68.5975 1175.86 68.2821 1175.03 67.6514C1174.2 67.0208 1173.77 66.1287 1173.75 64.9753L1176.27 64.6003C1176.32 65.2423 1176.55 65.7281 1176.96 66.0577C1177.38 66.3815 1177.96 66.5435 1178.71 66.5435C1179.56 66.5492 1180.27 66.3702 1180.85 66.0065C1181.42 65.6429 1181.75 65.2026 1181.83 64.6855C1181.9 64.2821 1181.81 63.9469 1181.56 63.6798C1181.31 63.4128 1180.88 63.2083 1180.26 63.0662L1178.15 62.5804C1176.96 62.302 1176.13 61.8531 1175.64 61.2338C1175.15 60.6145 1174.99 59.8361 1175.15 58.8986C1175.27 58.1315 1175.6 57.4639 1176.12 56.8958C1176.65 56.3219 1177.31 55.8759 1178.12 55.5577C1178.93 55.2338 1179.82 55.0719 1180.8 55.0719C1182.22 55.0719 1183.29 55.3787 1184.01 55.9923C1184.73 56.6003 1185.14 57.4156 1185.24 58.4384Z" fill="#E5E5E5"/>
<path d="M516.788 47H510.857L519.895 20.8182H527.028L536.054 47H530.122L523.564 26.8011H523.359L516.788 47ZM516.418 36.7088H530.429V41.0298H516.418V36.7088ZM545.425 47.3196C543.933 47.3196 542.582 46.9361 541.372 46.169C540.17 45.3935 539.216 44.2557 538.509 42.7557C537.81 41.2472 537.46 39.3977 537.46 37.2074C537.46 34.9574 537.822 33.0866 538.547 31.5952C539.271 30.0952 540.234 28.9744 541.436 28.233C542.646 27.483 543.972 27.108 545.412 27.108C546.511 27.108 547.428 27.2955 548.161 27.6705C548.902 28.0369 549.499 28.4972 549.95 29.0511C550.411 29.5966 550.76 30.1335 550.999 30.6619H551.165V20.8182H556.598V47H551.229V43.8551H550.999C550.743 44.4006 550.381 44.9418 549.912 45.4787C549.452 46.0071 548.851 46.446 548.109 46.7955C547.376 47.1449 546.482 47.3196 545.425 47.3196ZM547.151 42.9858C548.028 42.9858 548.77 42.7472 549.375 42.2699C549.989 41.7841 550.457 41.1065 550.781 40.2372C551.114 39.3679 551.28 38.3494 551.28 37.1818C551.28 36.0142 551.118 35 550.794 34.1392C550.47 33.2784 550.001 32.6136 549.388 32.1449C548.774 31.6761 548.028 31.4418 547.151 31.4418C546.256 31.4418 545.501 31.6847 544.888 32.1705C544.274 32.6562 543.81 33.3295 543.494 34.1903C543.179 35.0511 543.021 36.0483 543.021 37.1818C543.021 38.3239 543.179 39.3338 543.494 40.2116C543.818 41.081 544.283 41.7628 544.888 42.2571C545.501 42.7429 546.256 42.9858 547.151 42.9858ZM579.382 27.3636L572.517 47H566.381L559.516 27.3636H565.269L569.347 41.4134H569.551L573.617 27.3636H579.382ZM590.485 47.3835C588.466 47.3835 586.727 46.9744 585.27 46.1562C583.821 45.3295 582.704 44.1619 581.92 42.6534C581.136 41.1364 580.744 39.3423 580.744 37.2713C580.744 35.2514 581.136 33.4787 581.92 31.9531C582.704 30.4276 583.808 29.2386 585.231 28.3864C586.663 27.5341 588.342 27.108 590.268 27.108C591.564 27.108 592.77 27.3168 593.886 27.7344C595.011 28.1435 595.991 28.7614 596.826 29.5881C597.67 30.4148 598.326 31.4545 598.795 32.7074C599.264 33.9517 599.498 35.4091 599.498 37.0795V38.5753H582.917V35.2003H594.372C594.372 34.4162 594.201 33.7216 593.86 33.1165C593.52 32.5114 593.047 32.0384 592.441 31.6974C591.845 31.348 591.15 31.1733 590.358 31.1733C589.531 31.1733 588.798 31.3651 588.159 31.7486C587.528 32.1236 587.034 32.6307 586.676 33.2699C586.318 33.9006 586.135 34.6037 586.126 35.3793V38.5881C586.126 39.5597 586.305 40.3991 586.663 41.1065C587.029 41.8139 587.545 42.3594 588.21 42.7429C588.875 43.1264 589.663 43.3182 590.575 43.3182C591.18 43.3182 591.734 43.233 592.237 43.0625C592.74 42.892 593.17 42.6364 593.528 42.2955C593.886 41.9545 594.159 41.5369 594.346 41.0426L599.383 41.375C599.127 42.5852 598.603 43.642 597.811 44.5455C597.027 45.4403 596.012 46.1392 594.768 46.642C593.532 47.1364 592.105 47.3835 590.485 47.3835ZM603.052 47V27.3636H608.332V30.7898H608.537C608.895 29.571 609.495 28.6506 610.339 28.0284C611.183 27.3977 612.154 27.0824 613.254 27.0824C613.527 27.0824 613.821 27.0994 614.136 27.1335C614.451 27.1676 614.728 27.2145 614.967 27.2741V32.1065C614.711 32.0298 614.358 31.9616 613.906 31.902C613.454 31.8423 613.041 31.8125 612.666 31.8125C611.865 31.8125 611.149 31.9872 610.518 32.3366C609.896 32.6776 609.402 33.1548 609.035 33.7685C608.677 34.3821 608.498 35.0895 608.498 35.8906V47H603.052ZM629.212 27.3636V31.4545H617.386V27.3636H629.212ZM620.071 22.6591H625.517V40.9659C625.517 41.4687 625.594 41.8608 625.747 42.142C625.901 42.4148 626.114 42.6065 626.386 42.7173C626.668 42.8281 626.991 42.8835 627.358 42.8835C627.614 42.8835 627.869 42.8622 628.125 42.8196C628.381 42.7685 628.577 42.7301 628.713 42.7045L629.57 46.7571C629.297 46.8423 628.913 46.9403 628.419 47.0511C627.925 47.1705 627.324 47.2429 626.616 47.2685C625.304 47.3196 624.153 47.1449 623.165 46.7443C622.185 46.3437 621.422 45.7216 620.876 44.8778C620.331 44.0341 620.063 42.9687 620.071 41.6818V22.6591ZM632.759 47V27.3636H638.205V47H632.759ZM635.495 24.8324C634.685 24.8324 633.991 24.5639 633.411 24.027C632.84 23.4815 632.555 22.8295 632.555 22.071C632.555 21.321 632.84 20.6776 633.411 20.1406C633.991 19.5952 634.685 19.3224 635.495 19.3224C636.305 19.3224 636.995 19.5952 637.566 20.1406C638.146 20.6776 638.435 21.321 638.435 22.071C638.435 22.8295 638.146 23.4815 637.566 24.027C636.995 24.5639 636.305 24.8324 635.495 24.8324ZM658.906 32.9631L653.92 33.2699C653.835 32.8437 653.652 32.4602 653.37 32.1193C653.089 31.7699 652.718 31.4929 652.258 31.2884C651.806 31.0753 651.265 30.9688 650.635 30.9688C649.791 30.9688 649.079 31.1477 648.5 31.5057C647.92 31.8551 647.63 32.3239 647.63 32.9119C647.63 33.3807 647.818 33.777 648.193 34.1009C648.568 34.4247 649.211 34.6847 650.123 34.8807L653.677 35.5966C655.586 35.9886 657.01 36.6193 657.947 37.4886C658.885 38.358 659.353 39.5 659.353 40.9148C659.353 42.2017 658.974 43.331 658.216 44.3026C657.466 45.2741 656.434 46.0327 655.122 46.5781C653.818 47.1151 652.314 47.3835 650.609 47.3835C648.01 47.3835 645.939 46.8423 644.396 45.7599C642.862 44.669 641.963 43.1861 641.699 41.3111L647.055 41.0298C647.217 41.8224 647.609 42.4276 648.231 42.8452C648.853 43.2543 649.65 43.4588 650.622 43.4588C651.576 43.4588 652.343 43.2756 652.923 42.9091C653.511 42.5341 653.809 42.0526 653.818 41.4645C653.809 40.9702 653.6 40.5653 653.191 40.25C652.782 39.9261 652.152 39.679 651.299 39.5085L647.899 38.831C645.981 38.4474 644.554 37.7827 643.616 36.8366C642.687 35.8906 642.223 34.6847 642.223 33.2188C642.223 31.9574 642.564 30.8707 643.245 29.9588C643.936 29.0469 644.903 28.3438 646.147 27.8494C647.4 27.3551 648.866 27.108 650.545 27.108C653.025 27.108 654.977 27.6321 656.4 28.6804C657.832 29.7287 658.667 31.1562 658.906 32.9631ZM671.732 47.3835C669.712 47.3835 667.973 46.9744 666.516 46.1562C665.067 45.3295 663.95 44.1619 663.166 42.6534C662.382 41.1364 661.99 39.3423 661.99 37.2713C661.99 35.2514 662.382 33.4787 663.166 31.9531C663.95 30.4276 665.054 29.2386 666.477 28.3864C667.909 27.5341 669.588 27.108 671.514 27.108C672.81 27.108 674.016 27.3168 675.132 27.7344C676.257 28.1435 677.237 28.7614 678.072 29.5881C678.916 30.4148 679.572 31.4545 680.041 32.7074C680.51 33.9517 680.744 35.4091 680.744 37.0795V38.5753H664.163V35.2003H675.618C675.618 34.4162 675.447 33.7216 675.107 33.1165C674.766 32.5114 674.293 32.0384 673.688 31.6974C673.091 31.348 672.396 31.1733 671.604 31.1733C670.777 31.1733 670.044 31.3651 669.405 31.7486C668.774 32.1236 668.28 32.6307 667.922 33.2699C667.564 33.9006 667.381 34.6037 667.372 35.3793V38.5881C667.372 39.5597 667.551 40.3991 667.909 41.1065C668.276 41.8139 668.791 42.3594 669.456 42.7429C670.121 43.1264 670.909 43.3182 671.821 43.3182C672.426 43.3182 672.98 43.233 673.483 43.0625C673.986 42.892 674.416 42.6364 674.774 42.2955C675.132 41.9545 675.405 41.5369 675.592 41.0426L680.629 41.375C680.374 42.5852 679.849 43.642 679.057 44.5455C678.273 45.4403 677.259 46.1392 676.014 46.642C674.778 47.1364 673.351 47.3835 671.732 47.3835ZM684.298 47V27.3636H689.489V30.8281H689.719C690.128 29.6776 690.81 28.7699 691.764 28.1051C692.719 27.4403 693.861 27.108 695.19 27.108C696.537 27.108 697.683 27.4446 698.629 28.1179C699.575 28.7827 700.206 29.6861 700.521 30.8281H700.726C701.126 29.7031 701.851 28.804 702.899 28.1307C703.956 27.4489 705.205 27.108 706.645 27.108C708.477 27.108 709.964 27.6918 711.107 28.8594C712.257 30.0185 712.832 31.6634 712.832 33.794V47H707.399V34.8679C707.399 33.777 707.109 32.9588 706.53 32.4134C705.95 31.8679 705.226 31.5952 704.357 31.5952C703.368 31.5952 702.597 31.9105 702.043 32.5412C701.489 33.1634 701.212 33.9858 701.212 35.0085V47H695.932V34.7528C695.932 33.7898 695.655 33.0227 695.101 32.4517C694.555 31.8807 693.835 31.5952 692.94 31.5952C692.335 31.5952 691.79 31.7486 691.304 32.0554C690.827 32.3537 690.447 32.7756 690.166 33.321C689.885 33.858 689.744 34.4886 689.744 35.2131V47H684.298ZM726.083 47.3835C724.063 47.3835 722.325 46.9744 720.867 46.1562C719.418 45.3295 718.302 44.1619 717.518 42.6534C716.734 41.1364 716.342 39.3423 716.342 37.2713C716.342 35.2514 716.734 33.4787 717.518 31.9531C718.302 30.4276 719.406 29.2386 720.829 28.3864C722.261 27.5341 723.94 27.108 725.866 27.108C727.161 27.108 728.367 27.3168 729.484 27.7344C730.609 28.1435 731.589 28.7614 732.424 29.5881C733.268 30.4148 733.924 31.4545 734.393 32.7074C734.862 33.9517 735.096 35.4091 735.096 37.0795V38.5753H718.515V35.2003H729.969C729.969 34.4162 729.799 33.7216 729.458 33.1165C729.117 32.5114 728.644 32.0384 728.039 31.6974C727.442 31.348 726.748 31.1733 725.955 31.1733C725.129 31.1733 724.396 31.3651 723.756 31.7486C723.126 32.1236 722.631 32.6307 722.273 33.2699C721.915 33.9006 721.732 34.6037 721.724 35.3793V38.5881C721.724 39.5597 721.903 40.3991 722.261 41.1065C722.627 41.8139 723.143 42.3594 723.808 42.7429C724.472 43.1264 725.261 43.3182 726.173 43.3182C726.778 43.3182 727.332 43.233 727.835 43.0625C728.337 42.892 728.768 42.6364 729.126 42.2955C729.484 41.9545 729.756 41.5369 729.944 41.0426L734.981 41.375C734.725 42.5852 734.201 43.642 733.408 44.5455C732.624 45.4403 731.61 46.1392 730.366 46.642C729.13 47.1364 727.702 47.3835 726.083 47.3835ZM744.096 35.6477V47H738.65V27.3636H743.84V30.8281H744.07C744.505 29.6861 745.234 28.7827 746.256 28.1179C747.279 27.4446 748.519 27.108 749.977 27.108C751.34 27.108 752.529 27.4062 753.543 28.0028C754.558 28.5994 755.346 29.4517 755.908 30.5597C756.471 31.6591 756.752 32.9716 756.752 34.4972V47H751.306V35.4688C751.315 34.267 751.008 33.3295 750.386 32.6562C749.763 31.9744 748.907 31.6335 747.816 31.6335C747.083 31.6335 746.435 31.7912 745.873 32.1065C745.319 32.4219 744.884 32.8821 744.569 33.4872C744.262 34.0838 744.104 34.804 744.096 35.6477ZM771.489 27.3636V31.4545H759.664V27.3636H771.489ZM762.348 22.6591H767.794V40.9659C767.794 41.4687 767.871 41.8608 768.025 42.142C768.178 42.4148 768.391 42.6065 768.664 42.7173C768.945 42.8281 769.269 42.8835 769.635 42.8835C769.891 42.8835 770.147 42.8622 770.402 42.8196C770.658 42.7685 770.854 42.7301 770.99 42.7045L771.847 46.7571C771.574 46.8423 771.191 46.9403 770.696 47.0511C770.202 47.1705 769.601 47.2429 768.894 47.2685C767.581 47.3196 766.431 47.1449 765.442 46.7443C764.462 46.3437 763.699 45.7216 763.154 44.8778C762.608 44.0341 762.34 42.9687 762.348 41.6818V22.6591Z" fill="#E5E5E5"/>
<path d="M439.247 99.0597L441.148 87.5369H443.449L441.548 99.0597H439.247ZM435.386 94.4489L435.778 92.1562H447.301L446.909 94.4489H435.386ZM458.197 84.3068C458.993 84.3125 459.751 84.4574 460.473 84.7415C461.2 85.0199 461.825 85.483 462.348 86.1307C462.871 86.7784 463.226 87.6477 463.413 88.7386C463.607 89.8239 463.567 91.179 463.294 92.804C463.044 94.3097 462.672 95.6477 462.178 96.8182C461.689 97.9886 461.098 98.9773 460.405 99.7841C459.717 100.591 458.939 101.202 458.07 101.616C457.206 102.031 456.274 102.239 455.274 102.239C454.24 102.239 453.345 102.034 452.589 101.625C451.839 101.216 451.26 100.651 450.851 99.929C450.447 99.2074 450.257 98.375 450.28 97.4318H452.811C452.834 98.1932 453.058 98.8011 453.484 99.2557C453.911 99.7102 454.544 99.9375 455.385 99.9375C456.669 99.9375 457.783 99.3835 458.726 98.2756C459.669 97.1676 460.317 95.5739 460.669 93.4943L460.533 93.6562C460.152 94.1449 459.717 94.5597 459.229 94.9006C458.746 95.2415 458.226 95.5028 457.669 95.6847C457.112 95.8608 456.533 95.9489 455.93 95.9489C454.896 95.9489 453.999 95.6932 453.237 95.1818C452.476 94.6705 451.919 93.9716 451.567 93.0852C451.214 92.1989 451.132 91.1875 451.32 90.0511C451.507 88.9659 451.916 87.9886 452.547 87.1193C453.183 86.2443 453.984 85.554 454.95 85.0483C455.922 84.5426 457.004 84.2955 458.197 84.3068ZM458.104 86.5227C457.422 86.5227 456.777 86.6932 456.169 87.0341C455.567 87.3693 455.055 87.8267 454.635 88.4062C454.22 88.9801 453.956 89.6222 453.842 90.3324C453.74 90.9744 453.788 91.5597 453.987 92.0881C454.186 92.6108 454.507 93.0284 454.95 93.3409C455.399 93.6477 455.945 93.8011 456.587 93.8011C457.109 93.8011 457.609 93.6989 458.087 93.4943C458.57 93.2898 459.007 93.0114 459.399 92.6591C459.797 92.3011 460.126 91.8949 460.388 91.4403C460.655 90.9801 460.828 90.4972 460.908 89.9915C461.016 89.3665 460.967 88.7926 460.763 88.2699C460.564 87.7415 460.237 87.3182 459.783 87C459.328 86.6818 458.768 86.5227 458.104 86.5227ZM464.95 102L475.066 86.9318L475.1 86.804H466.288L466.654 84.5455H478.194L477.802 86.8807L467.702 102H464.95ZM479.317 102L489.433 86.9318L489.467 86.804H480.655L481.021 84.5455H492.561L492.169 86.8807L482.07 102H479.317ZM501.018 84.3068C501.813 84.3125 502.572 84.4574 503.293 84.7415C504.021 85.0199 504.646 85.483 505.168 86.1307C505.691 86.7784 506.046 87.6477 506.234 88.7386C506.427 89.8239 506.387 91.179 506.114 92.804C505.864 94.3097 505.492 95.6477 504.998 96.8182C504.509 97.9886 503.918 98.9773 503.225 99.7841C502.538 100.591 501.759 101.202 500.89 101.616C500.026 102.031 499.094 102.239 498.094 102.239C497.06 102.239 496.165 102.034 495.41 101.625C494.66 101.216 494.08 100.651 493.671 99.929C493.268 99.2074 493.077 98.375 493.1 97.4318H495.631C495.654 98.1932 495.879 98.8011 496.305 99.2557C496.731 99.7102 497.364 99.9375 498.205 99.9375C499.489 99.9375 500.603 99.3835 501.546 98.2756C502.489 97.1676 503.137 95.5739 503.489 93.4943L503.353 93.6562C502.972 94.1449 502.538 94.5597 502.049 94.9006C501.566 95.2415 501.046 95.5028 500.489 95.6847C499.933 95.8608 499.353 95.9489 498.751 95.9489C497.717 95.9489 496.819 95.6932 496.058 95.1818C495.296 94.6705 494.739 93.9716 494.387 93.0852C494.035 92.1989 493.952 91.1875 494.14 90.0511C494.327 88.9659 494.737 87.9886 495.367 87.1193C496.004 86.2443 496.805 85.554 497.771 85.0483C498.742 84.5426 499.825 84.2955 501.018 84.3068ZM500.924 86.5227C500.242 86.5227 499.597 86.6932 498.989 87.0341C498.387 87.3693 497.876 87.8267 497.455 88.4062C497.04 88.9801 496.776 89.6222 496.663 90.3324C496.56 90.9744 496.609 91.5597 496.808 92.0881C497.006 92.6108 497.327 93.0284 497.771 93.3409C498.219 93.6477 498.765 93.8011 499.407 93.8011C499.93 93.8011 500.43 93.6989 500.907 93.4943C501.39 93.2898 501.827 93.0114 502.219 92.6591C502.617 92.3011 502.947 91.8949 503.208 91.4403C503.475 90.9801 503.648 90.4972 503.728 89.9915C503.836 89.3665 503.788 88.7926 503.583 88.2699C503.384 87.7415 503.058 87.3182 502.603 87C502.148 86.6818 501.589 86.5227 500.924 86.5227ZM513.616 102.239C512.378 102.239 511.318 102.02 510.438 101.582C509.557 101.139 508.909 100.543 508.494 99.7926C508.08 99.0369 507.952 98.1847 508.111 97.2358C508.23 96.5199 508.491 95.8608 508.895 95.2585C509.304 94.6506 509.804 94.142 510.395 93.733C510.986 93.3239 511.616 93.0625 512.287 92.9489V92.8722C511.457 92.6619 510.849 92.179 510.463 91.4233C510.077 90.6676 509.972 89.8125 510.148 88.858C510.318 87.9659 510.693 87.179 511.273 86.4972C511.852 85.8153 512.58 85.2812 513.455 84.8949C514.335 84.5028 515.304 84.3068 516.361 84.3068C517.446 84.3068 518.381 84.517 519.165 84.9375C519.955 85.3523 520.537 85.9176 520.912 86.6335C521.293 87.3494 521.406 88.1619 521.253 89.071C521.088 90.0426 520.67 90.8693 520 91.5511C519.33 92.233 518.557 92.6733 517.682 92.8722V92.9489C518.324 93.0739 518.878 93.3523 519.344 93.7841C519.815 94.2102 520.159 94.7415 520.375 95.3778C520.591 96.0142 520.636 96.7045 520.511 97.4489C520.352 98.3807 519.952 99.2074 519.31 99.929C518.668 100.651 517.855 101.216 516.872 101.625C515.895 102.034 514.81 102.239 513.616 102.239ZM513.778 100.082C514.528 100.082 515.193 99.9574 515.773 99.7074C516.358 99.4517 516.835 99.0994 517.205 98.6506C517.58 98.196 517.815 97.6705 517.912 97.0739C518.009 96.4716 517.943 95.946 517.716 95.4972C517.489 95.0426 517.136 94.6903 516.659 94.4403C516.182 94.1903 515.614 94.0653 514.955 94.0653C514.256 94.0653 513.608 94.2045 513.011 94.483C512.42 94.7557 511.926 95.1364 511.528 95.625C511.136 96.108 510.892 96.6619 510.795 97.2869C510.705 97.8551 510.764 98.3494 510.974 98.7699C511.185 99.1903 511.528 99.5142 512.006 99.7415C512.489 99.9687 513.08 100.082 513.778 100.082ZM515.116 91.9602C515.724 91.9602 516.281 91.8381 516.787 91.5938C517.293 91.3438 517.71 91.0028 518.04 90.571C518.375 90.1335 518.594 89.6335 518.696 89.071C518.793 88.5256 518.753 88.0597 518.577 87.6733C518.401 87.2812 518.111 86.983 517.707 86.7784C517.31 86.5682 516.815 86.4631 516.224 86.4631C515.599 86.4631 515.031 86.5824 514.52 86.821C514.014 87.054 513.597 87.3835 513.267 87.8097C512.943 88.2358 512.733 88.7301 512.636 89.2926C512.551 89.8437 512.599 90.321 512.781 90.7244C512.969 91.1222 513.264 91.429 513.668 91.6449C514.071 91.8551 514.554 91.9602 515.116 91.9602ZM532.311 84.5455L529.413 102H526.771L529.226 87.1875H529.124L524.496 89.9148L524.922 87.392L529.746 84.5455H532.311ZM534.348 98.5909L534.689 96.4602L544.209 84.5455H545.888L545.368 87.6818H544.303L537.484 96.2216V96.358H547.814L547.447 98.5909H534.348ZM542.044 102L542.717 97.9261L542.905 96.9801L544.959 84.5455H547.456L544.558 102H542.044ZM558.463 84.3068C559.259 84.3125 560.017 84.4574 560.739 84.7415C561.466 85.0199 562.091 85.483 562.614 86.1307C563.136 86.7784 563.491 87.6477 563.679 88.7386C563.872 89.8239 563.832 91.179 563.56 92.804C563.31 94.3097 562.938 95.6477 562.443 96.8182C561.955 97.9886 561.364 98.9773 560.67 99.7841C559.983 100.591 559.205 101.202 558.335 101.616C557.472 102.031 556.54 102.239 555.54 102.239C554.506 102.239 553.611 102.034 552.855 101.625C552.105 101.216 551.526 100.651 551.116 99.929C550.713 99.2074 550.523 98.375 550.545 97.4318H553.077C553.099 98.1932 553.324 98.8011 553.75 99.2557C554.176 99.7102 554.81 99.9375 555.651 99.9375C556.935 99.9375 558.048 99.3835 558.991 98.2756C559.935 97.1676 560.582 95.5739 560.935 93.4943L560.798 93.6562C560.418 94.1449 559.983 94.5597 559.494 94.9006C559.011 95.2415 558.491 95.5028 557.935 95.6847C557.378 95.8608 556.798 95.9489 556.196 95.9489C555.162 95.9489 554.264 95.6932 553.503 95.1818C552.741 94.6705 552.185 93.9716 551.832 93.0852C551.48 92.1989 551.398 91.1875 551.585 90.0511C551.773 88.9659 552.182 87.9886 552.812 87.1193C553.449 86.2443 554.25 85.554 555.216 85.0483C556.188 84.5426 557.27 84.2955 558.463 84.3068ZM558.369 86.5227C557.688 86.5227 557.043 86.6932 556.435 87.0341C555.832 87.3693 555.321 87.8267 554.901 88.4062C554.486 88.9801 554.222 89.6222 554.108 90.3324C554.006 90.9744 554.054 91.5597 554.253 92.0881C554.452 92.6108 554.773 93.0284 555.216 93.3409C555.665 93.6477 556.21 93.8011 556.852 93.8011C557.375 93.8011 557.875 93.6989 558.352 93.4943C558.835 93.2898 559.273 93.0114 559.665 92.6591C560.063 92.3011 560.392 91.8949 560.653 91.4403C560.92 90.9801 561.094 90.4972 561.173 89.9915C561.281 89.3665 561.233 88.7926 561.028 88.2699C560.83 87.7415 560.503 87.3182 560.048 87C559.594 86.6818 559.034 86.5227 558.369 86.5227ZM571.309 102.239C570.513 102.233 569.752 102.088 569.025 101.804C568.298 101.52 567.673 101.054 567.15 100.406C566.633 99.7528 566.278 98.8778 566.085 97.7812C565.891 96.6847 565.931 95.3239 566.204 93.6989C566.454 92.1989 566.823 90.8693 567.312 89.7102C567.806 88.5455 568.4 87.5625 569.093 86.7614C569.786 85.9545 570.565 85.3438 571.428 84.929C572.298 84.5142 573.232 84.3068 574.232 84.3068C575.261 84.3068 576.153 84.5114 576.908 84.9205C577.664 85.3295 578.244 85.892 578.647 86.608C579.05 87.3239 579.241 88.1449 579.218 89.071H576.695C576.673 88.3324 576.445 87.7386 576.013 87.2898C575.587 86.8352 574.954 86.608 574.113 86.608C572.829 86.608 571.715 87.1619 570.772 88.2699C569.829 89.3722 569.181 90.9517 568.829 93.0085L568.965 92.8466C569.346 92.358 569.778 91.9432 570.261 91.6023C570.749 91.2614 571.272 91.0028 571.829 90.8267C572.391 90.6506 572.971 90.5625 573.567 90.5625C574.602 90.5625 575.499 90.8182 576.261 91.3295C577.022 91.8352 577.579 92.5312 577.931 93.4176C578.289 94.304 578.371 95.3182 578.178 96.4602C577.991 97.5455 577.582 98.5284 576.951 99.4091C576.32 100.284 575.519 100.977 574.548 101.489C573.582 102 572.502 102.25 571.309 102.239ZM571.394 100.023C572.076 100.023 572.721 99.8523 573.329 99.5114C573.937 99.1648 574.448 98.7017 574.863 98.1222C575.283 97.5369 575.55 96.8892 575.664 96.179C575.766 95.5369 575.718 94.9517 575.519 94.4233C575.32 93.8949 574.996 93.4773 574.548 93.1705C574.104 92.858 573.559 92.7017 572.911 92.7017C572.4 92.7017 571.9 92.804 571.411 93.0085C570.928 93.2131 570.491 93.4943 570.099 93.8523C569.707 94.2045 569.377 94.6108 569.11 95.071C568.843 95.5256 568.67 96.0085 568.59 96.5199C568.488 97.1449 568.536 97.7244 568.735 98.2585C568.934 98.7869 569.261 99.2131 569.715 99.5369C570.175 99.8608 570.735 100.023 571.394 100.023ZM586.533 102.239C585.339 102.239 584.308 102.04 583.439 101.642C582.57 101.239 581.922 100.676 581.496 99.9545C581.075 99.233 580.93 98.3977 581.061 97.4489H583.695C583.638 97.9602 583.723 98.4062 583.95 98.7869C584.183 99.1676 584.527 99.4602 584.982 99.6648C585.436 99.8693 585.979 99.9716 586.609 99.9716C587.297 99.9716 587.936 99.8494 588.527 99.6051C589.124 99.3608 589.621 99.0142 590.018 98.5653C590.422 98.1108 590.669 97.5795 590.76 96.9716C590.845 96.4091 590.78 95.9176 590.564 95.4972C590.348 95.071 589.982 94.7386 589.464 94.5C588.947 94.2614 588.286 94.142 587.479 94.142H585.953L586.311 91.9943H587.709C588.362 91.9943 588.959 91.8722 589.499 91.6278C590.044 91.3835 590.499 91.0398 590.862 90.5966C591.226 90.1534 591.453 89.6364 591.544 89.0455C591.635 88.5341 591.601 88.0909 591.442 87.7159C591.283 87.3352 591.01 87.0398 590.624 86.8295C590.243 86.6136 589.754 86.5057 589.158 86.5057C588.584 86.5057 588.021 86.6108 587.47 86.821C586.919 87.0256 586.45 87.321 586.064 87.7074C585.678 88.0881 585.436 88.5455 585.339 89.0795H582.8C582.976 88.1364 583.379 87.3068 584.01 86.5909C584.641 85.875 585.416 85.3153 586.337 84.9119C587.263 84.5085 588.249 84.3068 589.294 84.3068C590.436 84.3068 591.385 84.5369 592.141 84.9972C592.896 85.4574 593.439 86.0597 593.768 86.804C594.104 87.5483 594.203 88.3523 594.067 89.2159C593.908 90.1875 593.499 90.9943 592.839 91.6364C592.18 92.2727 591.371 92.7102 590.411 92.9489V93.0597C591.518 93.2415 592.334 93.7273 592.857 94.517C593.379 95.3068 593.55 96.2557 593.368 97.3636C593.209 98.3466 592.814 99.2045 592.183 99.9375C591.553 100.665 590.751 101.23 589.78 101.634C588.808 102.037 587.726 102.239 586.533 102.239ZM601.857 102.29C600.51 102.29 599.419 101.938 598.584 101.233C597.749 100.523 597.192 99.4943 596.913 98.1477C596.635 96.8011 596.649 95.179 596.956 93.2812C597.268 91.3892 597.788 89.7727 598.516 88.4318C599.249 87.0909 600.149 86.0682 601.217 85.3636C602.291 84.6591 603.496 84.3068 604.831 84.3068C606.161 84.3068 607.246 84.6619 608.087 85.3722C608.928 86.0767 609.493 87.0966 609.783 88.4318C610.078 89.767 610.067 91.3835 609.749 93.2812C609.43 95.1847 608.908 96.8068 608.18 98.1477C607.453 99.4886 606.553 100.514 605.479 101.224C604.405 101.935 603.197 102.29 601.857 102.29ZM602.232 100.014C603.419 100.014 604.442 99.4375 605.3 98.2841C606.158 97.1307 606.768 95.4631 607.132 93.2812C607.371 91.8324 607.419 90.608 607.277 89.608C607.141 88.6023 606.831 87.8409 606.348 87.3239C605.871 86.8011 605.24 86.5398 604.456 86.5398C603.286 86.5398 602.268 87.1222 601.405 88.2869C600.547 89.446 599.939 91.1108 599.581 93.2812C599.337 94.7358 599.283 95.9659 599.419 96.9716C599.555 97.9716 599.862 98.7301 600.339 99.2472C600.817 99.7585 601.447 100.014 602.232 100.014ZM619.94 84.3068C620.735 84.3125 621.494 84.4574 622.215 84.7415C622.942 85.0199 623.567 85.483 624.09 86.1307C624.613 86.7784 624.968 87.6477 625.156 88.7386C625.349 89.8239 625.309 91.179 625.036 92.804C624.786 94.3097 624.414 95.6477 623.92 96.8182C623.431 97.9886 622.84 98.9773 622.147 99.7841C621.46 100.591 620.681 101.202 619.812 101.616C618.948 102.031 618.016 102.239 617.016 102.239C615.982 102.239 615.087 102.034 614.332 101.625C613.582 101.216 613.002 100.651 612.593 99.929C612.19 99.2074 611.999 98.375 612.022 97.4318H614.553C614.576 98.1932 614.8 98.8011 615.227 99.2557C615.653 99.7102 616.286 99.9375 617.127 99.9375C618.411 99.9375 619.525 99.3835 620.468 98.2756C621.411 97.1676 622.059 95.5739 622.411 93.4943L622.275 93.6562C621.894 94.1449 621.46 94.5597 620.971 94.9006C620.488 95.2415 619.968 95.5028 619.411 95.6847C618.854 95.8608 618.275 95.9489 617.673 95.9489C616.638 95.9489 615.741 95.6932 614.979 95.1818C614.218 94.6705 613.661 93.9716 613.309 93.0852C612.957 92.1989 612.874 91.1875 613.062 90.0511C613.249 88.9659 613.658 87.9886 614.289 87.1193C614.925 86.2443 615.727 85.554 616.692 85.0483C617.664 84.5426 618.746 84.2955 619.94 84.3068ZM619.846 86.5227C619.164 86.5227 618.519 86.6932 617.911 87.0341C617.309 87.3693 616.798 87.8267 616.377 88.4062C615.962 88.9801 615.698 89.6222 615.585 90.3324C615.482 90.9744 615.531 91.5597 615.729 92.0881C615.928 92.6108 616.249 93.0284 616.692 93.3409C617.141 93.6477 617.687 93.8011 618.329 93.8011C618.852 93.8011 619.352 93.6989 619.829 93.4943C620.312 93.2898 620.749 93.0114 621.141 92.6591C621.539 92.3011 621.869 91.8949 622.13 91.4403C622.397 90.9801 622.57 90.4972 622.65 89.9915C622.758 89.3665 622.71 88.7926 622.505 88.2699C622.306 87.7415 621.979 87.3182 621.525 87C621.07 86.6818 620.511 86.5227 619.846 86.5227ZM632.538 102.239C631.3 102.239 630.24 102.02 629.359 101.582C628.479 101.139 627.831 100.543 627.416 99.7926C627.001 99.0369 626.874 98.1847 627.033 97.2358C627.152 96.5199 627.413 95.8608 627.817 95.2585C628.226 94.6506 628.726 94.142 629.317 93.733C629.908 93.3239 630.538 93.0625 631.209 92.9489V92.8722C630.379 92.6619 629.771 92.179 629.385 91.4233C628.999 90.6676 628.893 89.8125 629.07 88.858C629.24 87.9659 629.615 87.179 630.195 86.4972C630.774 85.8153 631.501 85.2812 632.376 84.8949C633.257 84.5028 634.226 84.3068 635.283 84.3068C636.368 84.3068 637.303 84.517 638.087 84.9375C638.876 85.3523 639.459 85.9176 639.834 86.6335C640.214 87.3494 640.328 88.1619 640.175 89.071C640.01 90.0426 639.592 90.8693 638.922 91.5511C638.251 92.233 637.479 92.6733 636.604 92.8722V92.9489C637.246 93.0739 637.8 93.3523 638.266 93.7841C638.737 94.2102 639.081 94.7415 639.297 95.3778C639.513 96.0142 639.558 96.7045 639.433 97.4489C639.274 98.3807 638.874 99.2074 638.232 99.929C637.589 100.651 636.777 101.216 635.794 101.625C634.817 102.034 633.732 102.239 632.538 102.239ZM632.7 100.082C633.45 100.082 634.115 99.9574 634.695 99.7074C635.28 99.4517 635.757 99.0994 636.126 98.6506C636.501 98.196 636.737 97.6705 636.834 97.0739C636.93 96.4716 636.865 95.946 636.638 95.4972C636.411 95.0426 636.058 94.6903 635.581 94.4403C635.104 94.1903 634.536 94.0653 633.876 94.0653C633.178 94.0653 632.53 94.2045 631.933 94.483C631.342 94.7557 630.848 95.1364 630.45 95.625C630.058 96.108 629.814 96.6619 629.717 97.2869C629.626 97.8551 629.686 98.3494 629.896 98.7699C630.107 99.1903 630.45 99.5142 630.928 99.7415C631.411 99.9687 632.001 100.082 632.7 100.082ZM634.038 91.9602C634.646 91.9602 635.203 91.8381 635.709 91.5938C636.214 91.3438 636.632 91.0028 636.962 90.571C637.297 90.1335 637.516 89.6335 637.618 89.071C637.714 88.5256 637.675 88.0597 637.499 87.6733C637.322 87.2812 637.033 86.983 636.629 86.7784C636.232 86.5682 635.737 86.4631 635.146 86.4631C634.521 86.4631 633.953 86.5824 633.442 86.821C632.936 87.054 632.518 87.3835 632.189 87.8097C631.865 88.2358 631.655 88.7301 631.558 89.2926C631.473 89.8437 631.521 90.321 631.703 90.7244C631.891 91.1222 632.186 91.429 632.589 91.6449C632.993 91.8551 633.476 91.9602 634.038 91.9602ZM661.805 78.9205L657.067 107.625H654.783L659.521 78.9205H661.805ZM674.509 102.264C673.236 102.264 672.193 101.977 671.381 101.403C670.568 100.824 670.003 100.026 669.685 99.0085C669.366 97.9915 669.315 96.8267 669.531 95.5142C669.747 94.1847 670.188 93.0114 670.852 91.9943C671.523 90.9716 672.361 90.1733 673.366 89.5994C674.378 89.0256 675.5 88.7386 676.733 88.7386C677.727 88.7386 678.582 88.9233 679.298 89.2926C680.014 89.6562 680.557 90.1676 680.926 90.8267C681.295 91.4858 681.455 92.2557 681.403 93.1364H678.923C678.884 92.5227 678.656 91.9943 678.241 91.5511C677.827 91.108 677.216 90.8864 676.409 90.8864C675.699 90.8864 675.045 91.0739 674.449 91.4489C673.852 91.8182 673.349 92.3466 672.94 93.0341C672.531 93.7159 672.253 94.5227 672.105 95.4545C671.946 96.4091 671.955 97.233 672.131 97.9261C672.307 98.6193 672.631 99.1562 673.102 99.5369C673.574 99.9176 674.168 100.108 674.884 100.108C675.372 100.108 675.827 100.02 676.247 99.8438C676.673 99.6619 677.048 99.4034 677.372 99.0682C677.702 98.733 677.957 98.3295 678.139 97.858H680.628C680.384 98.7045 679.974 99.4602 679.401 100.125C678.832 100.79 678.134 101.312 677.304 101.693C676.474 102.074 675.543 102.264 674.509 102.264ZM688.219 102.264C686.975 102.264 685.935 101.98 685.1 101.412C684.265 100.838 683.677 100.037 683.336 99.0085C683.001 97.9744 682.944 96.7727 683.165 95.4034C683.381 94.0625 683.816 92.892 684.469 91.892C685.129 90.892 685.952 90.1165 686.941 89.5653C687.935 89.0142 689.04 88.7386 690.256 88.7386C691.501 88.7386 692.538 89.0256 693.367 89.5994C694.202 90.1733 694.79 90.9773 695.131 92.0114C695.472 93.0455 695.532 94.25 695.31 95.625C695.094 96.9545 694.654 98.1193 693.989 99.1193C693.33 100.114 692.506 100.886 691.518 101.438C690.529 101.989 689.43 102.264 688.219 102.264ZM688.364 100.125C689.183 100.125 689.896 99.9091 690.504 99.4773C691.117 99.0455 691.617 98.4716 692.004 97.7557C692.39 97.0398 692.654 96.2557 692.796 95.4034C692.927 94.5795 692.924 93.8267 692.788 93.1449C692.657 92.4574 692.373 91.9062 691.935 91.4915C691.498 91.0767 690.89 90.8693 690.112 90.8693C689.293 90.8693 688.575 91.0881 687.955 91.5256C687.342 91.9574 686.842 92.5341 686.455 93.2557C686.075 93.9773 685.816 94.7642 685.68 95.6165C685.549 96.4347 685.549 97.1875 685.68 97.875C685.81 98.5568 686.094 99.1023 686.532 99.5114C686.969 99.9205 687.58 100.125 688.364 100.125ZM700.942 94.2273L699.663 102H697.115L699.297 88.9091H701.743L701.385 91.0398H701.547C701.962 90.3409 702.527 89.7841 703.243 89.3693C703.964 88.9489 704.817 88.7386 705.8 88.7386C706.686 88.7386 707.43 88.9261 708.033 89.3011C708.641 89.6705 709.07 90.2216 709.32 90.9545C709.575 91.6875 709.615 92.5937 709.439 93.6733L708.041 102H705.493L706.831 93.9801C706.984 93.0312 706.859 92.2898 706.456 91.7557C706.058 91.2159 705.425 90.946 704.555 90.946C703.964 90.946 703.416 91.0739 702.911 91.3295C702.411 91.5852 701.987 91.9602 701.641 92.4545C701.3 92.9432 701.067 93.5341 700.942 94.2273ZM719.743 88.9091L719.411 90.9545H712.26L712.592 88.9091H719.743ZM715.021 85.7727H717.57L715.507 98.1562C715.428 98.6506 715.442 99.0227 715.55 99.2727C715.658 99.517 715.822 99.6847 716.044 99.7756C716.271 99.8608 716.524 99.9034 716.803 99.9034C717.007 99.9034 717.186 99.8892 717.339 99.8608C717.493 99.8324 717.615 99.8097 717.706 99.7926L717.842 101.898C717.672 101.955 717.442 102.011 717.152 102.068C716.868 102.131 716.521 102.165 716.112 102.17C715.442 102.182 714.837 102.062 714.297 101.812C713.757 101.557 713.354 101.17 713.087 100.653C712.82 100.131 712.754 99.4744 712.891 98.6847L715.021 85.7727ZM724.156 102.29C723.326 102.29 722.602 102.136 721.982 101.83C721.363 101.517 720.906 101.065 720.61 100.474C720.315 99.8835 720.238 99.1591 720.38 98.3011C720.505 97.5625 720.749 96.9545 721.113 96.4773C721.482 96 721.931 95.6222 722.46 95.3438C722.988 95.0597 723.562 94.8466 724.181 94.7045C724.8 94.5625 725.425 94.4574 726.056 94.3892C726.852 94.2983 727.496 94.2216 727.991 94.1591C728.491 94.0966 728.866 94 729.116 93.8693C729.366 93.733 729.516 93.5114 729.567 93.2045V93.1449C729.687 92.4062 729.579 91.8324 729.244 91.4233C728.914 91.0085 728.34 90.8011 727.522 90.8011C726.67 90.8011 725.954 90.9886 725.374 91.3636C724.8 91.7386 724.377 92.1591 724.104 92.625L721.82 92.0795C722.229 91.2841 722.749 90.642 723.38 90.1534C724.016 89.6591 724.712 89.3011 725.468 89.0795C726.224 88.8523 726.996 88.7386 727.786 88.7386C728.309 88.7386 728.852 88.8011 729.414 88.9261C729.977 89.0455 730.488 89.267 730.948 89.5909C731.414 89.9148 731.761 90.3778 731.988 90.9801C732.215 91.5767 732.249 92.3523 732.09 93.3068L730.65 102H728.161L728.468 100.21H728.366C728.15 100.54 727.849 100.864 727.462 101.182C727.082 101.5 726.616 101.764 726.065 101.974C725.513 102.185 724.877 102.29 724.156 102.29ZM725.025 100.244C725.735 100.244 726.363 100.105 726.908 99.8267C727.46 99.5483 727.906 99.1847 728.246 98.7358C728.587 98.2812 728.8 97.7955 728.886 97.2784L729.167 95.5909C729.059 95.6818 728.869 95.7642 728.596 95.8381C728.329 95.9119 728.028 95.9773 727.692 96.0341C727.357 96.0909 727.028 96.1392 726.704 96.179C726.386 96.2187 726.121 96.2557 725.911 96.2898C725.411 96.3523 724.942 96.4574 724.505 96.6051C724.073 96.7528 723.712 96.9659 723.423 97.2443C723.133 97.517 722.951 97.8807 722.877 98.3352C722.775 98.9659 722.925 99.4432 723.329 99.767C723.738 100.085 724.303 100.244 725.025 100.244ZM739.524 102.264C738.251 102.264 737.209 101.977 736.396 101.403C735.584 100.824 735.018 100.026 734.7 99.0085C734.382 97.9915 734.331 96.8267 734.547 95.5142C734.763 94.1847 735.203 93.0114 735.868 91.9943C736.538 90.9716 737.376 90.1733 738.382 89.5994C739.393 89.0256 740.516 88.7386 741.749 88.7386C742.743 88.7386 743.598 88.9233 744.314 89.2926C745.03 89.6562 745.572 90.1676 745.942 90.8267C746.311 91.4858 746.47 92.2557 746.419 93.1364H743.939C743.899 92.5227 743.672 91.9943 743.257 91.5511C742.842 91.108 742.232 90.8864 741.425 90.8864C740.714 90.8864 740.061 91.0739 739.464 91.4489C738.868 91.8182 738.365 92.3466 737.956 93.0341C737.547 93.7159 737.268 94.5227 737.121 95.4545C736.962 96.4091 736.97 97.233 737.146 97.9261C737.322 98.6193 737.646 99.1562 738.118 99.5369C738.589 99.9176 739.183 100.108 739.899 100.108C740.388 100.108 740.842 100.02 741.263 99.8438C741.689 99.6619 742.064 99.4034 742.388 99.0682C742.717 98.733 742.973 98.3295 743.155 97.858H745.643C745.399 98.7045 744.99 99.4602 744.416 100.125C743.848 100.79 743.149 101.312 742.32 101.693C741.49 102.074 740.558 102.264 739.524 102.264ZM755.954 88.9091L755.621 90.9545H748.471L748.803 88.9091H755.954ZM751.232 85.7727H753.781L751.718 98.1562C751.638 98.6506 751.653 99.0227 751.761 99.2727C751.869 99.517 752.033 99.6847 752.255 99.7756C752.482 99.8608 752.735 99.9034 753.013 99.9034C753.218 99.9034 753.397 99.8892 753.55 99.8608C753.704 99.8324 753.826 99.8097 753.917 99.7926L754.053 101.898C753.883 101.955 753.653 102.011 753.363 102.068C753.079 102.131 752.732 102.165 752.323 102.17C751.653 102.182 751.048 102.062 750.508 101.812C749.968 101.557 749.565 101.17 749.298 100.653C749.031 100.131 748.965 99.4744 749.102 98.6847L751.232 85.7727ZM766.324 106.747C764.563 106.747 763.04 106.506 761.756 106.023C760.477 105.545 759.449 104.841 758.67 103.909C757.892 102.983 757.372 101.847 757.111 100.5C756.855 99.1534 756.866 97.6165 757.145 95.8892C757.423 94.2074 757.918 92.696 758.628 91.3551C759.338 90.0142 760.239 88.8722 761.33 87.929C762.42 86.9801 763.679 86.2557 765.105 85.7557C766.531 85.2557 768.097 85.0057 769.801 85.0057C771.432 85.0057 772.827 85.2614 773.986 85.7727C775.145 86.2841 776.074 86.9858 776.773 87.8778C777.472 88.7699 777.943 89.7926 778.188 90.946C778.432 92.0994 778.449 93.3182 778.239 94.6023C778.091 95.5 777.889 96.3778 777.634 97.2358C777.378 98.0881 777.04 98.8608 776.619 99.554C776.199 100.241 775.67 100.793 775.034 101.207C774.398 101.616 773.622 101.83 772.707 101.847C772.219 101.864 771.756 101.807 771.318 101.676C770.886 101.545 770.534 101.335 770.261 101.045C769.994 100.75 769.864 100.375 769.869 99.9205H769.767C769.585 100.256 769.31 100.568 768.94 100.858C768.571 101.142 768.125 101.369 767.602 101.54C767.085 101.705 766.506 101.773 765.864 101.744C765.153 101.716 764.537 101.554 764.014 101.259C763.491 100.963 763.068 100.554 762.744 100.031C762.426 99.5085 762.219 98.8892 762.122 98.1733C762.031 97.4574 762.057 96.6619 762.199 95.7869C762.341 94.946 762.588 94.1932 762.94 93.5284C763.293 92.858 763.722 92.2812 764.227 91.7983C764.733 91.3097 765.281 90.9233 765.872 90.6392C766.469 90.3551 767.082 90.1761 767.713 90.1023C768.315 90.0341 768.858 90.0511 769.341 90.1534C769.83 90.2557 770.222 90.4119 770.517 90.6222C770.818 90.8324 770.989 91.0625 771.028 91.3125H771.139L771.301 90.358H773.398L772.077 98.267C772.014 98.7159 772.074 99.0966 772.256 99.4091C772.443 99.7216 772.756 99.8778 773.193 99.8778C773.71 99.8778 774.145 99.6875 774.497 99.3068C774.855 98.9261 775.159 98.3409 775.409 97.5511C775.665 96.7614 775.895 95.75 776.099 94.517C776.247 93.6534 776.267 92.8409 776.159 92.0795C776.051 91.3125 775.827 90.6193 775.486 90C775.145 89.375 774.688 88.8381 774.114 88.3892C773.54 87.9403 772.858 87.5937 772.068 87.3494C771.278 87.1051 770.384 86.983 769.384 86.983C768.026 86.983 766.781 87.1932 765.651 87.6136C764.526 88.0284 763.537 88.6278 762.685 89.4119C761.832 90.196 761.131 91.1364 760.58 92.233C760.028 93.3239 759.642 94.5483 759.42 95.9062C759.188 97.321 759.168 98.5767 759.361 99.6733C759.56 100.764 759.972 101.685 760.597 102.435C761.222 103.185 762.048 103.753 763.077 104.139C764.111 104.531 765.344 104.727 766.776 104.727C767.412 104.727 768.043 104.67 768.668 104.557C769.298 104.449 769.864 104.324 770.364 104.182C770.869 104.045 771.247 103.935 771.497 103.849L771.804 105.716C771.418 105.881 770.92 106.043 770.312 106.202C769.705 106.361 769.051 106.491 768.352 106.594C767.659 106.696 766.983 106.747 766.324 106.747ZM766.716 99.6562C767.455 99.6562 768.071 99.5085 768.565 99.2131C769.065 98.9176 769.463 98.4773 769.759 97.892C770.06 97.3011 770.284 96.5625 770.432 95.6761C770.574 94.8125 770.58 94.125 770.449 93.6136C770.318 93.0966 770.048 92.7273 769.639 92.5057C769.236 92.2784 768.685 92.1648 767.986 92.1648C767.344 92.1648 766.773 92.321 766.273 92.6335C765.773 92.946 765.358 93.3693 765.028 93.9034C764.699 94.4375 764.48 95.0312 764.372 95.6847C764.264 96.3722 764.256 97.0199 764.347 97.6278C764.438 98.2301 764.67 98.7188 765.045 99.0938C765.42 99.4688 765.977 99.6562 766.716 99.6562ZM781.999 88.9091H784.548L782.238 102.852C782.09 103.727 781.806 104.466 781.386 105.068C780.965 105.67 780.42 106.128 779.749 106.44C779.079 106.753 778.292 106.909 777.388 106.909C777.303 106.909 777.221 106.909 777.141 106.909C777.056 106.909 776.968 106.906 776.877 106.901L777.244 104.71C777.317 104.71 777.386 104.71 777.448 104.71C777.511 104.71 777.579 104.71 777.653 104.71C778.255 104.71 778.721 104.548 779.05 104.224C779.374 103.901 779.59 103.438 779.698 102.835L781.999 88.9091ZM783.746 86.8892C783.309 86.8892 782.937 86.7415 782.63 86.446C782.329 86.1449 782.19 85.7869 782.212 85.3722C782.229 84.9517 782.403 84.5937 782.732 84.2983C783.062 83.9972 783.448 83.8466 783.891 83.8466C784.335 83.8466 784.707 83.9972 785.008 84.2983C785.309 84.5937 785.448 84.9517 785.425 85.3722C785.408 85.7869 785.235 86.1449 784.906 86.446C784.576 86.7415 784.19 86.8892 783.746 86.8892ZM789.57 102.29C788.74 102.29 788.016 102.136 787.396 101.83C786.777 101.517 786.32 101.065 786.024 100.474C785.729 99.8835 785.652 99.1591 785.794 98.3011C785.919 97.5625 786.163 96.9545 786.527 96.4773C786.896 96 787.345 95.6222 787.874 95.3438C788.402 95.0597 788.976 94.8466 789.595 94.7045C790.214 94.5625 790.839 94.4574 791.47 94.3892C792.266 94.2983 792.911 94.2216 793.405 94.1591C793.905 94.0966 794.28 94 794.53 93.8693C794.78 93.733 794.93 93.5114 794.982 93.2045V93.1449C795.101 92.4062 794.993 91.8324 794.658 91.4233C794.328 91.0085 793.754 90.8011 792.936 90.8011C792.084 90.8011 791.368 90.9886 790.788 91.3636C790.214 91.7386 789.791 92.1591 789.518 92.625L787.234 92.0795C787.643 91.2841 788.163 90.642 788.794 90.1534C789.43 89.6591 790.126 89.3011 790.882 89.0795C791.638 88.8523 792.411 88.7386 793.2 88.7386C793.723 88.7386 794.266 88.8011 794.828 88.9261C795.391 89.0455 795.902 89.267 796.362 89.5909C796.828 89.9148 797.175 90.3778 797.402 90.9801C797.629 91.5767 797.663 92.3523 797.504 93.3068L796.064 102H793.575L793.882 100.21H793.78C793.564 100.54 793.263 100.864 792.876 101.182C792.496 101.5 792.03 101.764 791.479 101.974C790.928 102.185 790.291 102.29 789.57 102.29ZM790.439 100.244C791.149 100.244 791.777 100.105 792.322 99.8267C792.874 99.5483 793.32 99.1847 793.661 98.7358C794.001 98.2812 794.214 97.7955 794.3 97.2784L794.581 95.5909C794.473 95.6818 794.283 95.7642 794.01 95.8381C793.743 95.9119 793.442 95.9773 793.107 96.0341C792.771 96.0909 792.442 96.1392 792.118 96.179C791.8 96.2187 791.536 96.2557 791.325 96.2898C790.825 96.3523 790.357 96.4574 789.919 96.6051C789.487 96.7528 789.126 96.9659 788.837 97.2443C788.547 97.517 788.365 97.8807 788.291 98.3352C788.189 98.9659 788.339 99.4432 788.743 99.767C789.152 100.085 789.717 100.244 790.439 100.244ZM803.293 94.2273L802.015 102H799.467L801.648 88.9091H804.094L803.737 91.0398H803.898C804.313 90.3409 804.879 89.7841 805.594 89.3693C806.316 88.9489 807.168 88.7386 808.151 88.7386C809.038 88.7386 809.782 88.9261 810.384 89.3011C810.992 89.6705 811.421 90.2216 811.671 90.9545C811.927 91.6875 811.967 92.5937 811.79 93.6733L810.393 102H807.844L809.183 93.9801C809.336 93.0312 809.211 92.2898 808.808 91.7557C808.41 91.2159 807.776 90.946 806.907 90.946C806.316 90.946 805.768 91.0739 805.262 91.3295C804.762 91.5852 804.339 91.9602 803.992 92.4545C803.651 92.9432 803.418 93.5341 803.293 94.2273ZM817.577 102.29C816.748 102.29 816.023 102.136 815.404 101.83C814.785 101.517 814.327 101.065 814.032 100.474C813.737 99.8835 813.66 99.1591 813.802 98.3011C813.927 97.5625 814.171 96.9545 814.535 96.4773C814.904 96 815.353 95.6222 815.881 95.3438C816.41 95.0597 816.984 94.8466 817.603 94.7045C818.222 94.5625 818.847 94.4574 819.478 94.3892C820.273 94.2983 820.918 94.2216 821.413 94.1591C821.913 94.0966 822.288 94 822.538 93.8693C822.788 93.733 822.938 93.5114 822.989 93.2045V93.1449C823.109 92.4062 823.001 91.8324 822.665 91.4233C822.336 91.0085 821.762 90.8011 820.944 90.8011C820.092 90.8011 819.376 90.9886 818.796 91.3636C818.222 91.7386 817.799 92.1591 817.526 92.625L815.242 92.0795C815.651 91.2841 816.171 90.642 816.802 90.1534C817.438 89.6591 818.134 89.3011 818.89 89.0795C819.646 88.8523 820.418 88.7386 821.208 88.7386C821.731 88.7386 822.273 88.8011 822.836 88.9261C823.398 89.0455 823.91 89.267 824.37 89.5909C824.836 89.9148 825.183 90.3778 825.41 90.9801C825.637 91.5767 825.671 92.3523 825.512 93.3068L824.072 102H821.583L821.89 100.21H821.788C821.572 100.54 821.271 100.864 820.884 101.182C820.504 101.5 820.038 101.764 819.487 101.974C818.935 102.185 818.299 102.29 817.577 102.29ZM818.447 100.244C819.157 100.244 819.785 100.105 820.33 99.8267C820.881 99.5483 821.327 99.1847 821.668 98.7358C822.009 98.2812 822.222 97.7955 822.308 97.2784L822.589 95.5909C822.481 95.6818 822.29 95.7642 822.018 95.8381C821.751 95.9119 821.45 95.9773 821.114 96.0341C820.779 96.0909 820.45 96.1392 820.126 96.179C819.808 96.2187 819.543 96.2557 819.333 96.2898C818.833 96.3523 818.364 96.4574 817.927 96.6051C817.495 96.7528 817.134 96.9659 816.844 97.2443C816.555 97.517 816.373 97.8807 816.299 98.3352C816.197 98.9659 816.347 99.4432 816.751 99.767C817.16 100.085 817.725 100.244 818.447 100.244ZM827.67 102L830.568 84.5455H833.116L832.051 91.0312H832.205C832.398 90.7585 832.662 90.4432 832.997 90.0852C833.338 89.7273 833.778 89.4148 834.318 89.1477C834.858 88.875 835.534 88.7386 836.347 88.7386C837.403 88.7386 838.301 89.0057 839.04 89.5398C839.778 90.0739 840.301 90.8437 840.608 91.8494C840.915 92.8551 840.952 94.0653 840.719 95.4801C840.486 96.8949 840.048 98.108 839.406 99.1193C838.77 100.125 837.994 100.901 837.08 101.446C836.165 101.986 835.179 102.256 834.122 102.256C833.327 102.256 832.699 102.122 832.239 101.855C831.784 101.588 831.443 101.276 831.216 100.918C830.994 100.56 830.827 100.241 830.713 99.9631H830.5L830.159 102H827.67ZM831.259 95.4545C831.111 96.375 831.111 97.1818 831.259 97.875C831.412 98.5682 831.71 99.1108 832.153 99.5028C832.602 99.8892 833.19 100.082 833.918 100.082C834.679 100.082 835.349 99.8807 835.929 99.4773C836.509 99.0682 836.986 98.5142 837.361 97.8153C837.736 97.1165 837.997 96.3295 838.145 95.4545C838.281 94.5909 838.278 93.8153 838.136 93.1278C837.994 92.4403 837.699 91.8977 837.25 91.5C836.807 91.1023 836.202 90.9034 835.435 90.9034C834.696 90.9034 834.04 91.0937 833.466 91.4744C832.892 91.8551 832.418 92.3864 832.043 93.0682C831.668 93.75 831.406 94.5455 831.259 95.4545ZM848.097 102.264C846.813 102.264 845.751 101.989 844.91 101.438C844.075 100.881 843.489 100.099 843.154 99.0938C842.819 98.0824 842.765 96.8977 842.992 95.5398C843.214 94.1989 843.66 93.017 844.33 91.9943C845.001 90.9716 845.836 90.1733 846.836 89.5994C847.842 89.0256 848.952 88.7386 850.168 88.7386C850.907 88.7386 851.603 88.8608 852.256 89.1051C852.915 89.3494 853.475 89.733 853.935 90.2557C854.396 90.7784 854.714 91.4574 854.89 92.2926C855.072 93.1222 855.066 94.1307 854.873 95.3182L854.728 96.2216H844.313L844.612 94.3125H852.521C852.64 93.642 852.609 93.0483 852.427 92.5312C852.245 92.0085 851.933 91.5966 851.489 91.2955C851.052 90.9943 850.501 90.8438 849.836 90.8438C849.154 90.8438 848.518 91.0227 847.927 91.3807C847.336 91.7386 846.842 92.196 846.444 92.7528C846.052 93.304 845.805 93.8722 845.702 94.4574L845.404 96.2045C845.256 97.1591 845.282 97.9261 845.481 98.5057C845.685 99.0852 846.043 99.5057 846.555 99.767C847.066 100.028 847.705 100.159 848.472 100.159C848.967 100.159 849.424 100.091 849.844 99.9545C850.271 99.8125 850.648 99.6051 850.978 99.3324C851.308 99.054 851.583 98.7074 851.805 98.2926L854.14 98.7273C853.827 99.4375 853.379 100.06 852.793 100.594C852.208 101.122 851.518 101.534 850.722 101.83C849.933 102.119 849.058 102.264 848.097 102.264ZM862.102 102.264C860.83 102.264 859.787 101.977 858.974 101.403C858.162 100.824 857.597 100.026 857.278 99.0085C856.96 97.9915 856.909 96.8267 857.125 95.5142C857.341 94.1847 857.781 93.0114 858.446 91.9943C859.116 90.9716 859.955 90.1733 860.96 89.5994C861.972 89.0256 863.094 88.7386 864.327 88.7386C865.321 88.7386 866.176 88.9233 866.892 89.2926C867.608 89.6562 868.151 90.1676 868.52 90.8267C868.889 91.4858 869.048 92.2557 868.997 93.1364H866.517C866.477 92.5227 866.25 91.9943 865.835 91.5511C865.42 91.108 864.81 90.8864 864.003 90.8864C863.293 90.8864 862.639 91.0739 862.043 91.4489C861.446 91.8182 860.943 92.3466 860.534 93.0341C860.125 93.7159 859.847 94.5227 859.699 95.4545C859.54 96.4091 859.548 97.233 859.724 97.9261C859.901 98.6193 860.224 99.1562 860.696 99.5369C861.168 99.9176 861.761 100.108 862.477 100.108C862.966 100.108 863.42 100.02 863.841 99.8438C864.267 99.6619 864.642 99.4034 864.966 99.0682C865.295 98.733 865.551 98.3295 865.733 97.858H868.222C867.977 98.7045 867.568 99.4602 866.994 100.125C866.426 100.79 865.727 101.312 864.898 101.693C864.068 102.074 863.136 102.264 862.102 102.264ZM874.075 94.2273L872.796 102H870.248L873.146 84.5455H875.66L874.586 91.0398H874.748C875.163 90.3295 875.719 89.7699 876.418 89.3608C877.123 88.946 877.987 88.7386 879.009 88.7386C879.907 88.7386 880.66 88.9233 881.268 89.2926C881.881 89.6619 882.313 90.2131 882.563 90.946C882.819 91.6733 882.859 92.5824 882.683 93.6733L881.285 102H878.737L880.066 93.9801C880.225 93.0199 880.1 92.2756 879.691 91.7472C879.282 91.2131 878.643 90.946 877.773 90.946C877.165 90.946 876.603 91.0739 876.086 91.3295C875.575 91.5852 875.143 91.9602 874.79 92.4545C874.438 92.9432 874.2 93.5341 874.075 94.2273ZM888.452 102.29C887.623 102.29 886.898 102.136 886.279 101.83C885.66 101.517 885.202 101.065 884.907 100.474C884.612 99.8835 884.535 99.1591 884.677 98.3011C884.802 97.5625 885.046 96.9545 885.41 96.4773C885.779 96 886.228 95.6222 886.756 95.3438C887.285 95.0597 887.859 94.8466 888.478 94.7045C889.097 94.5625 889.722 94.4574 890.353 94.3892C891.148 94.2983 891.793 94.2216 892.288 94.1591C892.788 94.0966 893.163 94 893.413 93.8693C893.663 93.733 893.813 93.5114 893.864 93.2045V93.1449C893.984 92.4062 893.876 91.8324 893.54 91.4233C893.211 91.0085 892.637 90.8011 891.819 90.8011C890.967 90.8011 890.251 90.9886 889.671 91.3636C889.097 91.7386 888.674 92.1591 888.401 92.625L886.117 92.0795C886.526 91.2841 887.046 90.642 887.677 90.1534C888.313 89.6591 889.009 89.3011 889.765 89.0795C890.521 88.8523 891.293 88.7386 892.083 88.7386C892.606 88.7386 893.148 88.8011 893.711 88.9261C894.273 89.0455 894.785 89.267 895.245 89.5909C895.711 89.9148 896.058 90.3778 896.285 90.9801C896.512 91.5767 896.546 92.3523 896.387 93.3068L894.947 102H892.458L892.765 100.21H892.663C892.447 100.54 892.146 100.864 891.759 101.182C891.379 101.5 890.913 101.764 890.362 101.974C889.81 102.185 889.174 102.29 888.452 102.29ZM889.322 100.244C890.032 100.244 890.66 100.105 891.205 99.8267C891.756 99.5483 892.202 99.1847 892.543 98.7358C892.884 98.2812 893.097 97.7955 893.183 97.2784L893.464 95.5909C893.356 95.6818 893.165 95.7642 892.893 95.8381C892.626 95.9119 892.325 95.9773 891.989 96.0341C891.654 96.0909 891.325 96.1392 891.001 96.179C890.683 96.2187 890.418 96.2557 890.208 96.2898C889.708 96.3523 889.239 96.4574 888.802 96.6051C888.37 96.7528 888.009 96.9659 887.719 97.2443C887.43 97.517 887.248 97.8807 887.174 98.3352C887.072 98.9659 887.222 99.4432 887.626 99.767C888.035 100.085 888.6 100.244 889.322 100.244ZM898.341 102L900.523 88.9091H902.986L902.636 90.9886H902.773C903.125 90.2841 903.639 89.7301 904.315 89.3267C904.991 88.9176 905.713 88.7131 906.48 88.7131C906.645 88.7131 906.832 88.7187 907.043 88.7301C907.253 88.7358 907.423 88.75 907.554 88.7727L907.145 91.2102C907.048 91.1818 906.872 91.1506 906.616 91.1165C906.361 91.0767 906.097 91.0568 905.824 91.0568C905.227 91.0568 904.673 91.1847 904.162 91.4403C903.651 91.6903 903.222 92.0398 902.875 92.4886C902.528 92.9318 902.304 93.4375 902.202 94.0057L900.889 102H898.341ZM907.991 102.162C907.513 102.162 907.116 101.997 906.798 101.668C906.485 101.338 906.332 100.935 906.337 100.457C906.343 99.9858 906.519 99.5909 906.866 99.2727C907.218 98.9489 907.627 98.7869 908.093 98.7869C908.559 98.7869 908.957 98.9517 909.286 99.2812C909.616 99.6108 909.769 100.003 909.746 100.457C909.729 100.776 909.638 101.065 909.474 101.327C909.315 101.582 909.104 101.787 908.843 101.94C908.582 102.088 908.298 102.162 907.991 102.162ZM918.376 102.264C917.103 102.264 916.06 101.977 915.248 101.403C914.435 100.824 913.87 100.026 913.552 99.0085C913.234 97.9915 913.183 96.8267 913.398 95.5142C913.614 94.1847 914.055 93.0114 914.719 91.9943C915.39 90.9716 916.228 90.1733 917.234 89.5994C918.245 89.0256 919.367 88.7386 920.6 88.7386C921.594 88.7386 922.45 88.9233 923.165 89.2926C923.881 89.6562 924.424 90.1676 924.793 90.8267C925.163 91.4858 925.322 92.2557 925.271 93.1364H922.79C922.751 92.5227 922.523 91.9943 922.109 91.5511C921.694 91.108 921.083 90.8864 920.276 90.8864C919.566 90.8864 918.913 91.0739 918.316 91.4489C917.719 91.8182 917.217 92.3466 916.808 93.0341C916.398 93.7159 916.12 94.5227 915.972 95.4545C915.813 96.4091 915.822 97.233 915.998 97.9261C916.174 98.6193 916.498 99.1562 916.969 99.5369C917.441 99.9176 918.035 100.108 918.751 100.108C919.239 100.108 919.694 100.02 920.114 99.8438C920.54 99.6619 920.915 99.4034 921.239 99.0682C921.569 98.733 921.825 98.3295 922.006 97.858H924.495C924.251 98.7045 923.842 99.4602 923.268 100.125C922.7 100.79 922.001 101.312 921.171 101.693C920.342 102.074 919.41 102.264 918.376 102.264ZM932.087 102.264C930.842 102.264 929.803 101.98 928.967 101.412C928.132 100.838 927.544 100.037 927.203 99.0085C926.868 97.9744 926.811 96.7727 927.033 95.4034C927.249 94.0625 927.683 92.892 928.337 91.892C928.996 90.892 929.82 90.1165 930.808 89.5653C931.803 89.0142 932.908 88.7386 934.124 88.7386C935.368 88.7386 936.405 89.0256 937.234 89.5994C938.07 90.1733 938.658 90.9773 938.999 92.0114C939.339 93.0455 939.399 94.25 939.178 95.625C938.962 96.9545 938.521 98.1193 937.857 99.1193C937.197 100.114 936.374 100.886 935.385 101.438C934.396 101.989 933.297 102.264 932.087 102.264ZM932.232 100.125C933.05 100.125 933.763 99.9091 934.371 99.4773C934.984 99.0455 935.484 98.4716 935.871 97.7557C936.257 97.0398 936.521 96.2557 936.663 95.4034C936.794 94.5795 936.791 93.8267 936.655 93.1449C936.524 92.4574 936.24 91.9062 935.803 91.4915C935.365 91.0767 934.757 90.8693 933.979 90.8693C933.161 90.8693 932.442 91.0881 931.822 91.5256C931.209 91.9574 930.709 92.5341 930.322 93.2557C929.942 93.9773 929.683 94.7642 929.547 95.6165C929.416 96.4347 929.416 97.1875 929.547 97.875C929.678 98.5568 929.962 99.1023 930.399 99.5114C930.837 99.9205 931.447 100.125 932.232 100.125ZM940.982 102L943.164 88.9091H945.61L945.252 91.0398H945.414C945.812 90.3182 946.352 89.7557 947.033 89.3523C947.721 88.9432 948.499 88.7386 949.369 88.7386C950.232 88.7386 950.928 88.9432 951.457 89.3523C951.991 89.7614 952.34 90.3239 952.505 91.0398H952.641C953.062 90.3352 953.65 89.7756 954.406 89.3608C955.161 88.946 956.011 88.7386 956.954 88.7386C958.13 88.7386 959.033 89.1136 959.664 89.8636C960.3 90.608 960.494 91.7273 960.244 93.2216L958.778 102H956.221L957.653 93.4602C957.795 92.5682 957.658 91.9261 957.244 91.5341C956.829 91.1364 956.286 90.9375 955.616 90.9375C954.786 90.9375 954.099 91.1932 953.553 91.7045C953.008 92.2102 952.673 92.8608 952.548 93.6562L951.141 102H948.61L950.067 93.2983C950.181 92.5824 950.05 92.0114 949.675 91.5852C949.306 91.1534 948.766 90.9375 948.056 90.9375C947.573 90.9375 947.104 91.0653 946.65 91.321C946.201 91.5767 945.817 91.929 945.499 92.3778C945.181 92.8267 944.974 93.3437 944.877 93.929L943.531 102H940.982Z" fill="white"/>
</svg>
