<svg width="16" height="17" viewBox="0 0 16 17" fill="none" xmlns="http://www.w3.org/2000/svg">
<path d="M4.05535 9.48532C3.95898 8.91655 3.98876 8.33378 4.1426 7.7776C4.29645 7.22142 4.57067 6.70519 4.94616 6.26486C5.32165 5.82454 5.7894 5.47071 6.31681 5.22801C6.84422 4.98532 7.41863 4.85959 8.00002 4.85959C8.58141 4.85959 9.15582 4.98532 9.68323 5.22801C10.2106 5.47071 10.6784 5.82454 11.0539 6.26486C11.4294 6.70519 11.7036 7.22142 11.8574 7.7776C12.0113 8.33378 12.0411 8.91655 11.9447 9.48532H4.05535ZM1.33335 10.808H8.00002V12.1306H1.33335V10.808ZM9.33335 10.808H14.6667V12.1306H9.33335V10.808ZM10.6667 13.4533H13.3334V14.776H10.6667V13.4533ZM2.66669 13.4533H9.33335V14.776H2.66669V13.4533ZM7.33335 1.54932H8.66669V3.53332H7.33335V1.54932ZM2.34335 4.14769L3.28602 3.21257L4.70002 4.61526L3.75735 5.55038L2.34335 4.14836V4.14769ZM12.7134 3.21257L13.656 4.14769L12.242 5.55038L11.2994 4.61526L12.7134 3.21257V3.21257ZM15.3334 8.16265V9.48532H13.3334V8.16265H15.3334ZM2.66669 8.16265V9.48532H0.666687V8.16265H2.66669Z" fill="#393939"/>
</svg>
