<svg width="313" height="106" viewBox="0 0 313 106" fill="none" xmlns="http://www.w3.org/2000/svg">
<path d="M80 53C80 75.0914 62.0914 93 40 93C17.9086 93 0 75.0914 0 53C0 30.9086 17.9086 13 40 13C62.0914 13 80 30.9086 80 53Z" fill="#E31A1A"/>
<path d="M75 53C75 72.33 59.33 88 40 88C20.67 88 5 72.33 5 53C5 33.67 20.67 18 40 18C59.33 18 75 33.67 75 53Z" fill="white"/>
<path d="M170.469 37.12H165.221V31.104H169.509C169.253 30.6773 169.04 30.144 168.869 29.504C168.741 28.864 168.677 28.2453 168.677 27.648C168.677 25.984 169.04 24.4907 169.765 23.168C170.533 21.8453 171.578 20.7147 172.901 19.776C174.266 18.7947 175.888 18.048 177.765 17.536C179.642 17.024 181.733 16.768 184.037 16.768C187.493 16.768 190.693 17.2373 193.637 18.176C196.581 19.1147 199.226 20.3093 201.573 21.76C203.962 23.168 206.053 24.7467 207.845 26.496C209.68 28.2453 211.216 29.9307 212.453 31.552L212.965 32.192L207.717 35.52L207.013 34.688C205.69 33.1947 204.24 31.7653 202.661 30.4C201.125 28.992 199.44 27.7547 197.605 26.688C195.813 25.5787 193.872 24.704 191.781 24.064C189.733 23.3813 187.557 23.04 185.253 23.04C182.266 23.04 180.09 23.616 178.725 24.768C177.36 25.8773 176.677 27.392 176.677 29.312C176.677 29.9947 176.784 30.592 176.997 31.104H183.653V37.12H178.341V72H170.469V37.12ZM197.401 41.664C199.321 41.664 200.857 41.8347 202.009 42.176C203.204 42.5173 204.292 42.9867 205.273 43.584V37.12H181.721V31.104H218.457V37.12H213.145V72H205.273V64.256C204.846 64.6827 204.014 65.1093 202.777 65.536C201.582 65.92 200.025 66.112 198.105 66.112C196.313 66.112 194.585 65.856 192.921 65.344C191.3 64.832 189.849 64.064 188.569 63.04C187.289 61.9733 186.265 60.6507 185.497 59.072C184.772 57.4933 184.409 55.6587 184.409 53.568C184.409 51.7333 184.729 50.0907 185.369 48.64C186.009 47.1467 186.905 45.888 188.057 44.864C189.209 43.84 190.574 43.0507 192.153 42.496C193.774 41.9413 195.524 41.664 197.401 41.664ZM192.473 53.824C192.473 55.9147 193.092 57.4507 194.329 58.432C195.609 59.3707 197.188 59.84 199.065 59.84C199.406 59.84 199.769 59.8187 200.153 59.776C200.58 59.7333 200.964 59.648 201.305 59.52L194.073 49.728C193.604 50.112 193.22 50.6667 192.921 51.392C192.622 52.0747 192.473 52.8853 192.473 53.824ZM205.337 50.24C204.654 49.5573 203.758 49.0027 202.649 48.576C201.54 48.1067 200.302 47.872 198.937 47.872C198.681 47.872 198.404 47.8933 198.105 47.936C197.806 47.936 197.55 47.9787 197.337 48.064L204.313 57.6C204.996 56.96 205.337 55.9787 205.337 54.656V50.24ZM219.206 49.088V43.008H242.31V49.088H240.198C238.022 49.088 236.38 49.5147 235.27 50.368C234.204 51.2213 233.67 52.3947 233.67 53.888C233.67 55.4667 234.246 56.6613 235.398 57.472C236.593 58.24 238.193 58.624 240.198 58.624C241.692 58.624 243.078 58.368 244.358 57.856C245.638 57.344 246.641 56.6827 247.366 55.872V37.12H217.158V31.104H260.55V37.12H255.238V72H247.366V62.72C246.769 63.2747 245.745 63.7867 244.294 64.256C242.844 64.6827 241.18 64.896 239.302 64.896C237.254 64.896 235.377 64.6613 233.67 64.192C232.006 63.68 230.556 62.976 229.318 62.08C228.124 61.184 227.185 60.096 226.502 58.816C225.862 57.4933 225.542 56 225.542 54.336C225.542 53.1413 225.777 52.0747 226.246 51.136C226.716 50.1973 227.249 49.5147 227.846 49.088H219.206ZM264.531 37.12H259.283V31.104H277.715V37.12H272.403V72H264.531V37.12ZM299.256 69.12L292.216 73.28L280.504 55.424C279.779 54.3573 279.246 53.4613 278.904 52.736C278.606 52.0107 278.456 51.328 278.456 50.688C278.456 49.5787 278.926 48.704 279.864 48.064C280.803 47.3813 282.04 47.04 283.576 47.04L284.664 48.512C285.091 49.0667 285.56 49.5147 286.072 49.856C286.584 50.1547 287.139 50.304 287.736 50.304C288.974 50.304 290.019 49.856 290.872 48.96C291.726 48.0213 292.152 46.5707 292.152 44.608C292.152 42.9013 291.896 41.408 291.384 40.128C290.872 38.848 290.339 37.8453 289.784 37.12H276.408V31.104H304.952V37.12H297.784C298.254 37.76 298.766 38.784 299.32 40.192C299.875 41.6 300.152 43.328 300.152 45.376C300.152 47.2107 299.832 48.832 299.192 50.24C298.552 51.6053 297.742 52.7573 296.76 53.696C295.779 54.592 294.67 55.2747 293.432 55.744C292.195 56.2133 291 56.448 289.848 56.448C289.678 56.448 289.528 56.4267 289.4 56.384L299.256 69.12Z" fill="#E31A1A"/>
<path d="M110.512 50.048C111.237 50.6027 111.941 51.4773 112.624 52.672C113.307 53.8667 113.648 55.4027 113.648 57.28C113.648 58.8587 113.328 60.3093 112.688 61.632C112.048 62.9547 111.152 64.0853 110 65.024C108.891 65.9627 107.547 66.7093 105.968 67.264C104.389 67.776 102.661 68.032 100.784 68.032C98.9067 68.032 97.1787 67.776 95.6 67.264C94.0213 66.752 92.6133 66.048 91.376 65.152C90.1813 64.256 89.1573 63.1893 88.304 61.952C87.4507 60.7147 86.768 59.3707 86.256 57.92L91.76 54.976C92.7413 57.1947 93.8933 58.88 95.216 60.032C96.5387 61.1413 98.1173 61.696 99.952 61.696C101.616 61.696 102.981 61.2267 104.048 60.288C105.115 59.3493 105.648 58.0053 105.648 56.256C105.648 54.2507 104.965 52.7147 103.6 51.648C102.235 50.5813 100.357 50.048 97.968 50.048H95.664V43.968H118.704V37.12H85.36V31.104H131.888V37.12H126.576V72H118.704V50.048H110.512ZM153.65 47.232V37.12H130.61V31.104H166.834V37.12H161.522V72H153.65V53.44H143.09L143.474 59.072C143.261 59.2853 142.813 59.5413 142.13 59.84C141.49 60.096 140.722 60.224 139.826 60.224C137.778 60.224 136.093 59.5413 134.77 58.176C133.49 56.768 132.85 54.976 132.85 52.8C132.85 51.008 133.362 49.6427 134.386 48.704C135.41 47.7227 137.01 47.232 139.186 47.232H153.65Z" fill="white"/>
<path d="M208.166 97V95.016C207.996 95.1227 207.713 95.2347 207.318 95.352C206.934 95.4693 206.454 95.528 205.878 95.528C205.366 95.528 204.897 95.464 204.47 95.336C204.044 95.208 203.676 95.0267 203.366 94.792C203.068 94.5573 202.833 94.28 202.662 93.96C202.502 93.6293 202.422 93.2667 202.422 92.872C202.422 92.328 202.556 91.896 202.822 91.576C203.1 91.2453 203.43 91.0053 203.814 90.856C203.42 90.7387 203.089 90.552 202.822 90.296C202.556 90.04 202.422 89.688 202.422 89.24C202.422 89.0267 202.449 88.84 202.502 88.68C202.566 88.5093 202.641 88.376 202.726 88.28H201.638V86.776H211.462V88.28H210.134V97H208.166ZM204.886 88.28C204.577 88.472 204.422 88.776 204.422 89.192C204.422 89.4907 204.545 89.7413 204.79 89.944C205.046 90.1467 205.43 90.248 205.942 90.248H206.662V91.784H205.894C205.382 91.784 205.009 91.88 204.774 92.072C204.54 92.2533 204.422 92.504 204.422 92.824C204.422 93.208 204.566 93.496 204.854 93.688C205.153 93.8693 205.553 93.96 206.054 93.96C206.513 93.96 206.94 93.896 207.334 93.768C207.729 93.64 208.006 93.4853 208.166 93.304V88.28H204.886ZM216.85 96.28L215.09 97.32L212.162 92.856C211.981 92.5893 211.848 92.3653 211.762 92.184C211.688 92.0027 211.65 91.832 211.65 91.672C211.65 91.3947 211.768 91.176 212.002 91.016C212.237 90.8453 212.546 90.76 212.93 90.76L213.202 91.128C213.309 91.2667 213.426 91.3787 213.554 91.464C213.682 91.5387 213.821 91.576 213.97 91.576C214.28 91.576 214.541 91.464 214.754 91.24C214.968 91.0053 215.074 90.6427 215.074 90.152C215.074 89.7253 215.01 89.352 214.882 89.032C214.754 88.712 214.621 88.4613 214.482 88.28H211.138V86.776H218.274V88.28H216.482C216.6 88.44 216.728 88.696 216.866 89.048C217.005 89.4 217.074 89.832 217.074 90.344C217.074 90.8027 216.994 91.208 216.834 91.56C216.674 91.9013 216.472 92.1893 216.226 92.424C215.981 92.648 215.704 92.8187 215.394 92.936C215.085 93.0533 214.786 93.112 214.498 93.112C214.456 93.112 214.418 93.1067 214.386 93.096L216.85 96.28ZM224.07 91.944C224.156 91.848 224.236 91.6827 224.31 91.448C224.385 91.2133 224.422 90.9307 224.422 90.6C224.422 90.12 224.342 89.6827 224.182 89.288C224.022 88.8933 223.83 88.5573 223.606 88.28H221.638V86.776H231.414V88.28H230.086V97H228.118V88.28H225.638C225.82 88.504 225.996 88.8453 226.166 89.304C226.337 89.7627 226.422 90.312 226.422 90.952C226.422 91.464 226.353 91.9227 226.214 92.328C226.086 92.7227 225.905 93.0587 225.67 93.336C225.446 93.6027 225.18 93.8053 224.87 93.944C224.572 94.0827 224.252 94.152 223.91 94.152C223.388 94.152 222.95 94.0027 222.598 93.704C222.246 93.3947 222.07 93 222.07 92.52C222.07 92.1253 222.188 91.8267 222.422 91.624C222.657 91.4107 222.924 91.304 223.222 91.304L224.07 91.944ZM232.403 88.28H231.091V86.776H235.699V88.28H234.371V97H232.403V88.28ZM241.005 91.64C241.229 91.704 241.447 91.8 241.661 91.928C241.885 92.056 242.082 92.2267 242.253 92.44C242.423 92.6427 242.562 92.888 242.669 93.176C242.775 93.4533 242.829 93.7733 242.829 94.136C242.829 94.5307 242.749 94.904 242.589 95.256C242.429 95.5973 242.194 95.9013 241.885 96.168C241.586 96.424 241.218 96.6267 240.781 96.776C240.354 96.9253 239.874 97 239.341 97C238.925 97 238.53 96.9467 238.157 96.84C237.783 96.7227 237.442 96.568 237.133 96.376C236.834 96.184 236.567 95.9547 236.333 95.688C236.098 95.4213 235.911 95.1333 235.773 94.824L237.005 93.992C237.271 94.4827 237.597 94.8507 237.981 95.096C238.365 95.3307 238.775 95.448 239.213 95.448C239.693 95.448 240.077 95.3253 240.365 95.08C240.653 94.824 240.797 94.4827 240.797 94.056C240.797 93.608 240.626 93.2347 240.285 92.936C239.954 92.6373 239.447 92.488 238.765 92.488H237.773V90.968H238.589C239.175 90.968 239.629 90.8507 239.949 90.616C240.279 90.3813 240.445 90.0507 240.445 89.624C240.445 89.272 240.322 88.9627 240.077 88.696C239.842 88.4187 239.431 88.28 238.845 88.28H235.373V86.776H243.709V88.28H241.837C241.986 88.3973 242.125 88.5893 242.253 88.856C242.381 89.1227 242.445 89.4053 242.445 89.704C242.445 90.2053 242.301 90.616 242.013 90.936C241.735 91.256 241.399 91.4907 241.005 91.64ZM239.62 82.776C239.62 82.5413 239.689 82.344 239.828 82.184C239.966 82.0133 240.164 81.928 240.42 81.928C240.665 81.928 240.857 82.0133 240.996 82.184C241.134 82.344 241.204 82.5413 241.204 82.776C241.204 83.0213 241.134 83.2293 240.996 83.4C240.857 83.56 240.665 83.64 240.42 83.64C240.164 83.64 239.966 83.56 239.828 83.4C239.689 83.2293 239.62 83.0213 239.62 82.776ZM243.364 82.824C243.364 83.304 243.284 83.72 243.124 84.072C242.974 84.424 242.766 84.7173 242.5 84.952C242.233 85.176 241.924 85.3467 241.572 85.464C241.22 85.5707 240.846 85.624 240.452 85.624C240.046 85.624 239.662 85.5653 239.3 85.448C238.937 85.3307 238.622 85.1547 238.356 84.92C238.078 84.6853 237.86 84.3973 237.7 84.056C237.54 83.704 237.46 83.2933 237.46 82.824H238.82C238.873 83.4 239.038 83.816 239.316 84.072C239.593 84.3173 239.961 84.44 240.42 84.44C240.868 84.44 241.236 84.312 241.524 84.056C241.801 83.7893 241.956 83.3787 241.988 82.824H243.364ZM248.748 91.592C248.62 91.4427 248.45 91.32 248.236 91.224C248.023 91.1173 247.778 91.064 247.5 91.064C247.084 91.064 246.738 91.1867 246.46 91.432C246.194 91.6667 246.06 92.008 246.06 92.456C246.06 92.9147 246.188 93.272 246.444 93.528C246.711 93.7733 247.047 93.896 247.452 93.896C247.783 93.896 248.082 93.7893 248.348 93.576C248.615 93.3627 248.748 93.0373 248.748 92.6V91.592ZM250.668 97H248.732V94.936C248.615 95.0747 248.418 95.1973 248.14 95.304C247.863 95.4107 247.532 95.464 247.148 95.464C246.732 95.464 246.332 95.3947 245.948 95.256C245.575 95.1173 245.25 94.92 244.972 94.664C244.695 94.3973 244.471 94.072 244.3 93.688C244.14 93.304 244.06 92.8613 244.06 92.36C244.06 91.8907 244.135 91.48 244.284 91.128C244.444 90.776 244.658 90.4827 244.924 90.248C245.191 90.0027 245.5 89.8213 245.852 89.704C246.204 89.576 246.578 89.512 246.972 89.512C247.314 89.512 247.644 89.56 247.964 89.656C248.284 89.752 248.54 89.8907 248.732 90.072V88.28H243.388V86.776H256.172V88.28H250.668V90.152C250.839 89.9813 251.084 89.8427 251.404 89.736C251.724 89.6293 252.087 89.576 252.492 89.576C252.908 89.576 253.292 89.64 253.644 89.768C253.996 89.896 254.3 90.0827 254.556 90.328C254.812 90.5733 255.01 90.872 255.148 91.224C255.298 91.5653 255.372 91.96 255.372 92.408C255.372 92.8987 255.287 93.3307 255.116 93.704C254.956 94.0667 254.732 94.3707 254.444 94.616C254.156 94.8613 253.82 95.048 253.436 95.176C253.052 95.2933 252.647 95.352 252.22 95.352C252.103 95.352 251.954 95.3467 251.772 95.336C251.602 95.3147 251.474 95.288 251.388 95.256L251.564 93.752C251.65 93.7733 251.724 93.784 251.788 93.784C251.852 93.784 251.932 93.784 252.028 93.784C252.391 93.784 252.706 93.672 252.972 93.448C253.239 93.2133 253.372 92.8667 253.372 92.408C253.372 92.0027 253.255 91.688 253.02 91.464C252.786 91.24 252.46 91.128 252.044 91.128C251.618 91.128 251.282 91.2667 251.036 91.544C250.791 91.8107 250.668 92.1893 250.668 92.68V97ZM252.468 82.968C252.671 82.8613 252.916 82.776 253.204 82.712C253.492 82.648 253.796 82.616 254.116 82.616C254.959 82.616 255.663 82.8293 256.228 83.256C256.793 83.6827 257.268 84.2587 257.652 84.984L258.596 86.776H260.34V88.28H259.012V97H257.044V88.28H255.732V86.776H257.076L256.612 86.088C256.26 85.544 255.919 85.1387 255.588 84.872C255.247 84.5947 254.815 84.456 254.292 84.456C254.079 84.456 253.871 84.4827 253.668 84.536C253.455 84.5787 253.263 84.632 253.092 84.696L252.468 82.968ZM264.293 87.288C264.581 87.0853 264.943 86.9307 265.381 86.824C265.829 86.7067 266.271 86.648 266.709 86.648C267.125 86.648 267.525 86.7013 267.909 86.808C268.303 86.9147 268.645 87.08 268.933 87.304C269.231 87.5173 269.471 87.7893 269.653 88.12C269.834 88.4507 269.925 88.8453 269.925 89.304C269.925 89.7733 269.813 90.1733 269.589 90.504C269.375 90.8347 269.146 91.0747 268.901 91.224C269.061 91.2773 269.247 91.3253 269.461 91.368C269.685 91.4 269.919 91.416 270.165 91.416C270.506 91.416 270.815 91.384 271.093 91.32C271.381 91.2453 271.599 91.1547 271.749 91.048V88.28H270.757V86.776H279.333V88.28H278.005V97H276.037V88.28H273.717V97H271.749V92.792C271.663 92.8453 271.53 92.888 271.349 92.92C271.178 92.9413 270.986 92.952 270.773 92.952C270.57 92.952 270.378 92.936 270.197 92.904C270.015 92.8613 269.834 92.8027 269.653 92.728L269.621 92.776C269.77 92.936 269.887 93.1387 269.973 93.384C270.058 93.6187 270.101 93.8747 270.101 94.152C270.101 94.568 270.021 94.9413 269.861 95.272C269.701 95.592 269.477 95.864 269.189 96.088C268.901 96.312 268.549 96.4827 268.133 96.6C267.727 96.7173 267.269 96.776 266.757 96.776C266.181 96.776 265.637 96.696 265.125 96.536C264.613 96.376 264.218 96.184 263.941 95.96L264.549 94.616C264.805 94.808 265.087 94.9573 265.397 95.064C265.717 95.1707 266.074 95.224 266.469 95.224C266.949 95.224 267.338 95.1067 267.637 94.872C267.946 94.6267 268.101 94.2853 268.101 93.848C268.101 93.4 267.951 93.0427 267.653 92.776C267.365 92.5093 266.943 92.376 266.389 92.376H265.253V90.856H266.197C266.709 90.856 267.125 90.7387 267.445 90.504C267.765 90.2587 267.925 89.9227 267.925 89.496C267.925 89.0587 267.775 88.7333 267.477 88.52C267.189 88.3067 266.842 88.2 266.437 88.2C266.159 88.2 265.887 88.2373 265.621 88.312C265.354 88.3867 265.098 88.504 264.853 88.664L264.293 87.288ZM282.822 89.416C283.281 89.416 283.654 89.4693 283.942 89.576C284.241 89.6827 284.507 89.816 284.742 89.976V88.28H278.982V86.776H288.022V88.28H286.71V97H284.742V95.032C284.625 95.1387 284.422 95.2507 284.134 95.368C283.857 95.4747 283.494 95.528 283.046 95.528C282.598 95.528 282.166 95.464 281.75 95.336C281.345 95.1973 280.982 95 280.662 94.744C280.353 94.4773 280.107 94.1467 279.926 93.752C279.745 93.3573 279.654 92.8987 279.654 92.376C279.654 91.9173 279.729 91.5067 279.878 91.144C280.038 90.7707 280.257 90.456 280.534 90.2C280.811 89.944 281.142 89.752 281.526 89.624C281.921 89.4853 282.353 89.416 282.822 89.416ZM284.742 91.624C284.593 91.4427 284.39 91.288 284.134 91.16C283.878 91.032 283.585 90.968 283.254 90.968C282.763 90.968 282.374 91.096 282.086 91.352C281.809 91.608 281.67 91.976 281.67 92.456C281.67 92.9787 281.819 93.3627 282.118 93.608C282.417 93.8427 282.811 93.96 283.302 93.96C283.707 93.96 284.049 93.8373 284.326 93.592C284.603 93.3467 284.742 93.032 284.742 92.648V91.624ZM289.013 88.28H287.701V86.776H292.309V88.28H290.981V97H289.013V88.28ZM298.27 91.512C298.451 91.6507 298.627 91.8693 298.798 92.168C298.969 92.4667 299.054 92.8507 299.054 93.32C299.054 93.7147 298.974 94.0773 298.814 94.408C298.654 94.7387 298.43 95.0213 298.142 95.256C297.865 95.4907 297.529 95.6773 297.134 95.816C296.739 95.944 296.307 96.008 295.838 96.008C295.369 96.008 294.937 95.944 294.542 95.816C294.147 95.688 293.795 95.512 293.486 95.288C293.187 95.064 292.931 94.7973 292.718 94.488C292.505 94.1787 292.334 93.8427 292.206 93.48L293.582 92.744C293.827 93.2987 294.115 93.72 294.446 94.008C294.777 94.2853 295.171 94.424 295.63 94.424C296.046 94.424 296.387 94.3067 296.654 94.072C296.921 93.8373 297.054 93.5013 297.054 93.064C297.054 92.5627 296.883 92.1787 296.542 91.912C296.201 91.6453 295.731 91.512 295.134 91.512H294.558V89.992H300.318V88.28H291.982V86.776H303.614V88.28H302.286V97H300.318V91.512H298.27Z" fill="white"/>
<path d="M17.4746 62.3984C17.4746 60.5234 17.9727 58.9941 18.9688 57.8105C19.2969 57.6348 19.6836 57.5 20.1289 57.4062C20.5742 57.3008 21.043 57.248 21.5352 57.248C22.4023 57.248 23.1816 57.4004 23.873 57.7051C23.873 58.0449 23.8789 58.2969 23.8906 58.4609C23.9023 59.6445 23.9316 60.6582 23.9785 61.502C24.0254 62.334 24.1309 63.2598 24.2949 64.2793C24.4707 65.2988 24.7344 66.3594 25.0859 67.4609C25.3555 67.5312 25.7188 67.5664 26.1758 67.5664L26.8086 67.5488C26.9141 67.5371 27.0664 67.5312 27.2656 67.5312L27.5293 67.5488C27.5645 66.623 27.582 65.4395 27.582 63.998C27.582 61.209 27.5234 57.8633 27.4062 53.9609C27.3242 51.2305 27.2832 48.9863 27.2832 47.2285C27.2832 45.6465 27.3184 44.4277 27.3887 43.5723C26.1348 43.6191 25.1094 43.6777 24.3125 43.748L24.2598 48.6875C23.5566 48.8633 22.9355 48.9805 22.3965 49.0391C21.8691 49.0977 21.2891 49.1211 20.6562 49.1094C20.3633 48.875 20.0469 48.4297 19.707 47.7734C19.3789 47.1055 19.1035 46.3496 18.8809 45.5059C18.6582 44.6504 18.5469 43.8418 18.5469 43.0801C18.5469 42.0254 18.7344 41.1465 19.1094 40.4434C19.4961 39.7402 20.0703 39.2305 20.832 38.9141C21.2305 38.7031 21.6875 38.5449 22.2031 38.4395C22.7305 38.3223 23.3867 38.2168 24.1719 38.123C25.0156 38.0176 25.9531 37.9648 26.9844 37.9648C28.0742 37.9648 29.2051 38.0176 30.377 38.123C31.5605 38.2168 32.6621 38.3516 33.6816 38.5273L34.6133 39.6172C34.4844 43.8477 34.3789 47.0117 34.2969 49.1094C34.25 49.9766 34.1973 51.4766 34.1387 53.6094C34.0215 56.9141 33.916 59.6562 33.8223 61.8359C33.7285 64.0039 33.6289 65.5684 33.5234 66.5293C33.418 67.4785 33.2715 68.2871 33.084 68.9551C32.9082 69.6348 32.6328 70.2266 32.2578 70.7305C31.7773 71.3633 31.127 71.832 30.3066 72.1367C29.498 72.4414 28.584 72.5938 27.5645 72.5938C25.8418 72.5938 24.3828 72.3828 23.1875 71.9609C21.9922 71.5391 20.9668 70.8301 20.1113 69.834C19.2676 68.8496 18.5645 67.502 18.002 65.791C17.6504 64.6895 17.4746 63.5586 17.4746 62.3984ZM39.4473 51.9922C39.4473 48.4414 39.5 45.7168 39.6055 43.8184H39.5879L36.8984 43.4492C36.7461 43.0156 36.6289 42.541 36.5469 42.0254C36.4648 41.498 36.4238 40.9883 36.4238 40.4961C36.4238 40.1211 36.4531 39.7109 36.5117 39.2656C37.9414 38.7852 39.8105 38.416 42.1191 38.1582C44.4277 37.8887 46.6309 37.7539 48.7285 37.7539C50.5215 37.7539 52.0625 37.8945 53.3516 38.1758C54.6406 38.4453 55.7188 39.0664 56.5859 40.0391C57.4648 41 57.9043 42.4355 57.9043 44.3457C57.9043 45.0957 57.6992 45.9453 57.2891 46.8945C56.8789 47.832 56.3398 48.7168 55.6719 49.5488C55.0156 50.3691 54.3301 51.002 53.6152 51.4473C54.5059 51.5996 55.332 51.9102 56.0938 52.3789C56.8672 52.8359 57.4941 53.4629 57.9746 54.2598C58.4551 55.0449 58.6953 55.9766 58.6953 57.0547C58.6953 58.4961 58.4199 59.7383 57.8691 60.7812C57.3184 61.8242 56.5332 62.6855 55.5137 63.3652C53.5215 64.6895 50.709 65.3516 47.0762 65.3516C45.6465 65.3516 44.375 65.3223 43.2617 65.2637C42.1602 65.2168 41.1406 65.123 40.2031 64.9824C39.6992 62.2637 39.4473 57.9336 39.4473 51.9922ZM49.4492 50.8848C49.7539 50.0293 50.0117 48.9453 50.2227 47.6328C50.4453 46.3086 50.5801 45.2305 50.627 44.3984C50.5684 44.293 50.2695 44.2051 49.7305 44.1348C49.1914 44.0527 48.4941 44.0117 47.6387 44.0117C47.3691 44.0117 46.918 44.0293 46.2852 44.0645C46.1914 46.7012 46.0508 49.0684 45.8633 51.166L47.6387 51.0254L49.4492 50.8848ZM48.5703 60.7461C49.5547 60.7461 50.2578 60.7051 50.6797 60.623C50.9727 60.4473 51.2305 60.1309 51.4531 59.6738C51.6875 59.2168 51.8633 58.7188 51.9805 58.1797C52.0977 57.6289 52.1562 57.1367 52.1562 56.7031C51.9453 56.0938 50.8965 55.7891 49.0098 55.7891C48.2129 55.7891 47.2988 55.8418 46.2676 55.9473C45.9863 55.9824 45.7754 56 45.6348 56L45.582 58.5664C45.5703 58.8242 45.5586 59.123 45.5469 59.4629C45.5352 59.8027 45.5293 60.1836 45.5293 60.6055C46.3027 60.6992 47.1465 60.7461 48.0605 60.7461H48.5703Z" fill="#E31A1A"/>
</svg>
