<svg width="16" height="17" viewBox="0 0 16 17" fill="none" xmlns="http://www.w3.org/2000/svg">
<path d="M8.00001 15.4374C4.31801 15.4374 1.33334 12.4766 1.33334 8.82403C1.33334 5.17148 4.31801 2.21069 8.00001 2.21069C11.682 2.21069 14.6667 5.17148 14.6667 8.82403C14.6667 12.4766 11.682 15.4374 8.00001 15.4374ZM8.00001 14.1147C9.4145 14.1147 10.7711 13.5573 11.7712 12.5651C12.7714 11.5729 13.3333 10.2272 13.3333 8.82403C13.3333 7.42085 12.7714 6.07515 11.7712 5.08296C10.7711 4.09077 9.4145 3.53336 8.00001 3.53336C6.58552 3.53336 5.22897 4.09077 4.22877 5.08296C3.22858 6.07515 2.66668 7.42085 2.66668 8.82403C2.66668 10.2272 3.22858 11.5729 4.22877 12.5651C5.22897 13.5573 6.58552 14.1147 8.00001 14.1147V14.1147ZM8.66668 8.82403H11.3333V10.1467H7.33334V5.51736H8.66668V8.82403Z" fill="#393939"/>
</svg>
